<svg width="20" height="20" viewBox="0 0 20 20" fill="none" xmlns="http://www.w3.org/2000/svg">
<path d="M10.001 11.398L12.901 14.298C13.0843 14.4814 13.3176 14.573 13.601 14.573C13.8843 14.573 14.1176 14.4814 14.301 14.298C14.4843 14.1147 14.576 13.8814 14.576 13.598C14.576 13.3147 14.4843 13.0814 14.301 12.898L11.401 9.99805L14.301 7.09805C14.4843 6.91471 14.576 6.68138 14.576 6.39805C14.576 6.11471 14.4843 5.88138 14.301 5.69805C14.1176 5.51471 13.8843 5.42305 13.601 5.42305C13.3176 5.42305 13.0843 5.51471 12.901 5.69805L10.001 8.59805L7.10098 5.69805C6.91764 5.51471 6.68431 5.42305 6.40098 5.42305C6.11764 5.42305 5.88431 5.51471 5.70098 5.69805C5.51764 5.88138 5.42598 6.11471 5.42598 6.39805C5.42598 6.68138 5.51764 6.91471 5.70098 7.09805L8.60098 9.99805L5.70098 12.898C5.51764 13.0814 5.42598 13.3147 5.42598 13.598C5.42598 13.8814 5.51764 14.1147 5.70098 14.298C5.88431 14.4814 6.11764 14.573 6.40098 14.573C6.68431 14.573 6.91764 14.4814 7.10098 14.298L10.001 11.398ZM10.001 19.998C8.61764 19.998 7.31764 19.7355 6.10098 19.2105C4.88431 18.6855 3.82598 17.973 2.92598 17.073C2.02598 16.173 1.31348 15.1147 0.788477 13.898C0.263477 12.6814 0.000976562 11.3814 0.000976562 9.99805C0.000976562 8.61471 0.263477 7.31471 0.788477 6.09805C1.31348 4.88138 2.02598 3.82305 2.92598 2.92305C3.82598 2.02305 4.88431 1.31055 6.10098 0.785547C7.31764 0.260547 8.61764 -0.00195312 10.001 -0.00195312C11.3843 -0.00195312 12.6843 0.260547 13.901 0.785547C15.1176 1.31055 16.176 2.02305 17.076 2.92305C17.976 3.82305 18.6885 4.88138 19.2135 6.09805C19.7385 7.31471 20.001 8.61471 20.001 9.99805C20.001 11.3814 19.7385 12.6814 19.2135 13.898C18.6885 15.1147 17.976 16.173 17.076 17.073C16.176 17.973 15.1176 18.6855 13.901 19.2105C12.6843 19.7355 11.3843 19.998 10.001 19.998Z" fill="#A54FA6"/>
</svg>
