<svg width="72" height="72" viewBox="0 0 72 72" fill="none" xmlns="http://www.w3.org/2000/svg">
<g id="check_circle">
<mask id="mask0_627_3676" style="mask-type:alpha" maskUnits="userSpaceOnUse" x="0" y="0" width="72" height="72">
<rect id="Bounding box" width="72" height="72" fill="#D9D9D9"/>
</mask>
<g mask="url(#mask0_627_3676)">
<path id="check_circle_2" d="M31.7998 41.4002L25.3498 34.9502C24.7998 34.4002 24.0998 34.1252 23.2498 34.1252C22.3998 34.1252 21.6998 34.4002 21.1498 34.9502C20.5998 35.5002 20.3248 36.2002 20.3248 37.0502C20.3248 37.9002 20.5998 38.6002 21.1498 39.1502L29.6998 47.7002C30.2998 48.3002 30.9998 48.6002 31.7998 48.6002C32.5998 48.6002 33.2998 48.3002 33.8998 47.7002L50.8498 30.7502C51.3998 30.2002 51.6748 29.5002 51.6748 28.6502C51.6748 27.8002 51.3998 27.1002 50.8498 26.5502C50.2998 26.0002 49.5998 25.7252 48.7498 25.7252C47.8998 25.7252 47.1998 26.0002 46.6498 26.5502L31.7998 41.4002ZM35.9998 66.0002C31.8498 66.0002 27.9498 65.2127 24.2998 63.6377C20.6498 62.0627 17.4748 59.9252 14.7748 57.2252C12.0748 54.5252 9.93726 51.3502 8.36226 47.7002C6.78726 44.0502 5.99976 40.1502 5.99976 36.0002C5.99976 31.8502 6.78726 27.9502 8.36226 24.3002C9.93726 20.6502 12.0748 17.4752 14.7748 14.7752C17.4748 12.0752 20.6498 9.93774 24.2998 8.36274C27.9498 6.78774 31.8498 6.00024 35.9998 6.00024C40.1498 6.00024 44.0498 6.78774 47.6998 8.36274C51.3498 9.93774 54.5248 12.0752 57.2248 14.7752C59.9248 17.4752 62.0623 20.6502 63.6372 24.3002C65.2122 27.9502 65.9998 31.8502 65.9998 36.0002C65.9998 40.1502 65.2122 44.0502 63.6372 47.7002C62.0623 51.3502 59.9248 54.5252 57.2248 57.2252C54.5248 59.9252 51.3498 62.0627 47.6998 63.6377C44.0498 65.2127 40.1498 66.0002 35.9998 66.0002Z" fill="url(#paint0_linear_627_3676)"/>
</g>
</g>
<defs>
<linearGradient id="paint0_linear_627_3676" x1="5.99976" y1="36.0002" x2="65.9998" y2="36.0002" gradientUnits="userSpaceOnUse">
<stop stop-color="#FE0048"/>
<stop offset="0.939103" stop-color="#A54FA6"/>
</linearGradient>
</defs>
</svg>
