<?xml version="1.0" encoding="utf-8"?>
<!-- Generator: Adobe Illustrator 24.3.0, SVG Export Plug-In . SVG Version: 6.00 Build 0)  -->
<svg version="1.1" id="Layer_1" xmlns="http://www.w3.org/2000/svg" xmlns:xlink="http://www.w3.org/1999/xlink" x="0px" y="0px"
	 viewBox="0 0 2000 2000" style="enable-background:new 0 0 2000 2000;" xml:space="preserve">
<style type="text/css">
	.st0{fill:#312D81;}
	.st1{fill:#EFEFF0;}
	.st2{fill:#2C2C2C;}
</style>
<g>
	<circle class="st0" cx="1000" cy="998.55" r="757"/>
	<g>
		<path class="st1" d="M983.7,1453.35c-9.56,0-19.14,0.41-28.68-0.11c-11.39-0.62-22.78-1.75-33.96-4.33
			c-6.37-1.47-12.29-4.04-18.11-6.95c-2.29-1.15-3.38-2.91-3.75-5.33c-1.61-10.56-3.06-21.13-2.83-31.87
			c0.17-7.64,0.11-15.29,0.18-22.93c0.12-12.99,2.25-25.76,3.9-38.61c2.09-16.32,5.91-32.22,10.1-48.03
			c5.57-21.05,12.79-41.56,22.66-61.04c2.93-5.78,6-11.53,9.51-16.98c4.59-7.14,10.41-13.57,17.81-17.57
			c14.98-8.1,27.48-19.31,40.22-30.22c17.35-14.86,37.42-24.89,58.16-33.85c1.74-0.75,3.64-1.15,5.43-1.8
			c5.06-1.86,9.23-1.18,13.71,2.44c12.18,9.82,24.84,19.05,37.29,28.53c15.22,11.59,31.37,21.75,47.95,31.26
			c4.29,2.46,8.63,4.86,12.96,7.25c0.27,0.15,0.74,0.08,1.07-0.04c0.94-0.35,1.04-1.01,0.25-1.75c-1.38-1.31-2.72-2.69-4.23-3.83
			c-18.6-14.01-37.33-27.86-55.83-42c-16.07-12.29-32.26-24.48-47.72-37.51c-14.3-12.06-28.17-24.68-41.01-38.35
			c-20.15-21.47-35.53-45.8-44.25-74.06c-3.04-9.85-5.14-19.98-5.27-30.31c-0.22-17.58-0.23-35.16,0.19-52.73
			c0.19-7.97,1.42-15.93,2.53-23.85c1.17-8.28,3-16.48,4.09-24.77c0.74-5.62,3.17-10.06,7.12-13.95c3.85-3.8,8.06-7.01,12.99-9.28
			c8.39-3.86,17.12-6.37,26.38-6.81c3.32-0.16,6.15,0.27,6.6,4.48c0.13,1.2,0.93,1.22,1.37,0.13c2.88-7.13,3.76-14.75,5.02-22.22
			c1.83-10.88,3.6-21.83,4.25-32.82c0.74-12.53,0.92-25.09-1-37.69c-1.32-8.68-2.86-17.23-4.95-25.76
			c-1.52-6.19-4.28-11.37-8.98-15.59c-1.42-1.28-2.77-2.63-4.18-3.93c-4.86-4.46-8.71-9.51-10.62-16.01
			c-1.41-4.82-4.32-8.91-7.95-12.43c-5.13-4.96-10.53-5.39-16.48-1.22c-0.93,0.65-1.62,1.7-2.59,2.24c-0.89,0.48-2.2,0.98-3.03,0.67
			c-8.6-3.14-13.83,1.18-18.05,7.91c-0.2,0.32-0.33,0.69-0.49,1.04c-1.03,2.27-2.63,3.68-5.27,3.65c-3.27-0.03-5.96,1.34-8.02,3.79
			c-2.5,2.98-4.36,6.36-4.57,10.3c-0.18,3.42,0.03,6.87,0.19,10.31c0.11,2.42-0.32,4.61-2.29,6.16c-6.57,5.19-5.66,12.16-4.09,18.92
			c0.84,3.62,2.74,7.12,4.73,10.33c7.25,11.74,16.06,22.29,25.47,32.34c5.48,5.86,11.16,11.53,16.68,17.35
			c0.35,0.36,0.3,1.59-0.05,1.99c-0.37,0.43-1.46,0.66-1.99,0.43c-1.38-0.61-2.63-1.51-3.91-2.33
			c-27.62-17.83-54.3-36.94-79.22-58.43c-1.99-1.72-4.4-2.96-6.65-4.37c-0.17-0.11-0.67,0.11-0.88,0.32
			c-0.22,0.22-0.49,0.72-0.38,0.91c0.72,1.31,1.32,2.78,2.34,3.82c7.77,7.89,15.76,15.53,24.03,22.93
			c14.87,13.31,30.85,25,47.7,35.57c5.17,3.24,10.57,6.14,16.05,8.84c2.91,1.43,3.89,3.42,3.57,6.38
			c-0.49,4.54-0.97,9.08-1.48,13.61c-0.08,0.76-0.48,1.52-0.4,2.24c0.91,8.3-2.18,14.67-8.69,19.87c-3.33,2.66-4.83,6.77-5.6,11.03
			c-0.95,5.25-1.5,10.64-3.18,15.66c-1.9,5.67-0.1,11.75-2.63,17.22c-1.98-5.33-3.59-10.83-6.01-15.96
			c-8.91-18.91-23.07-32.95-40.88-43.66c-15.83-9.52-32.92-16.02-50.5-21.24c-5.28-1.57-8.41-4.33-10.97-8.98
			c-11.09-20.21-19.24-41.56-24.59-63.9c-4.37-18.21-6.32-36.77-5.74-55.6c0.28-8.95,4.26-16.18,9.12-23.02
			c2.55-3.59,6.36-4.62,11.18-2.99c10.57,3.57,10.63,3.24,18.71-4.59c3-2.91,6.1-5.77,9.43-8.28c2.14-1.61,4.74-2.4,7.56-1.01
			c1.35,0.66,3.07,0.59,4.37,1.31c5.6,3.11,11.02,2.21,16.46-0.34c2.42-1.13,4.92-2.1,7.25-3.4c13.73-7.66,28.38-12.9,43.34-17.61
			c26.56-8.36,53.73-14.32,80.7-21.1c8.12-2.04,16.41-3.13,24.72-4.29c9.52-1.33,18.99-1.58,28.53-1.83
			c12.28-0.32,24.26,2.09,36.35,3.61c8.69,1.09,17.52,1.1,26.3,1.32c6.11,0.15,12.24-0.08,18.35-0.29
			c7.67-0.26,14.2,2.52,19.89,7.41c1.63,1.4,3.71,2.63,3.94,5.18c-1.76,0.67-3.59,1.2-5.25,2.06c-1.33,0.68-2.48,1.72-3.65,2.68
			c-1.1,0.91-1.48,3.57-0.5,4.04c0.88,0.42,2.23,0.69,3.03,0.31c3.82-1.8,7.59-3.35,11.95-3.56c9.17-0.45,9.35-0.38,9.28,9.3
			c-0.11,14.14-2.11,28.06-4.23,42.02c-5.01,32.91-16.74,63.26-33.78,91.7c-1.77,2.95-3.33,6.02-5.21,8.89
			c-1.12,1.71-2.68,3.14-4.05,4.69c-0.31-1.87-0.6-3.74-0.93-5.6c-0.67-3.74-1.4-7.48-2.05-11.23c-0.96-5.5-0.01-10.62,3.15-15.3
			c1.06-1.58,1.85-3.34,2.87-4.96c10.07-16,16.89-33.28,20.61-51.8c0.3-1.49,0.73-3,0.74-4.5c0.1-10.7,0.37-21.4,0.02-32.09
			c-0.12-3.67-1.86-7.3-2.9-10.93c-0.05-0.19-0.63-0.44-0.73-0.36c-0.28,0.22-0.6,0.59-0.62,0.92c-0.17,2.66-0.43,5.34-0.36,8
			c0.71,25.28-5.6,49.08-15.24,72.16c-0.48,1.15-1.58,2.03-2.39,3.04c-0.27-1.09-0.61-2.17-0.81-3.27
			c-1.7-9.78-3.61-19.51-7.69-28.63c-1.07-2.39-2.71-4.52-4.13-6.73c-0.12-0.18-0.68-0.27-0.88-0.15c-0.28,0.18-0.63,0.64-0.58,0.9
			c0.89,4.47,1.96,8.9,2.73,13.39c1.89,10.89,3.82,21.78,3.28,32.91c-0.06,1.12-0.38,2.23-0.67,3.32c-0.06,0.23-0.49,0.46-0.78,0.51
			c-0.35,0.06-0.81,0.05-1.09-0.13c-0.29-0.19-0.55-0.59-0.62-0.94c-2.18-10.12-5.93-19.69-9.99-29.17c-0.9-2.1-1.76-4.24-2.84-6.25
			c-2.78-5.2-5.48-8.15-6.04-6.93c-1.49,3.25,0.81,5.91,1.68,8.67c6.55,20.73,11.89,41.79,15.42,63.2c2.23,13.5,4.03,27.11,5.8,40.7
			c1.84,14.12,1.51,28.16,1.78,42.27c0.13,6.98-2.03,13.55-2.92,20.34c-0.18,1.35-2.48,2.29-3.69,1.6
			c-1.32-0.76-2.64-1.52-3.86-2.42c-6.56-4.82-13.91-7.86-21.76-9.82c-1.83-0.46-3.59-1.48-5.38,0.03c1.2,0.88,2.29,1.98,3.61,2.61
			c7.64,3.62,14.48,8.41,21.11,13.64c7.19,5.66,11.55,13.04,14.59,21.42c0.11,0.3-0.02,0.98-0.14,1.01
			c-0.61,0.14-1.39,0.37-1.88,0.12c-6.14-3.09-12.07-6.68-18.39-9.31c-13.53-5.64-27.65-8.55-42.41-7.34
			c-0.64,0.05-1.24,0.65-1.85,0.99c0.71,0.83,1.28,1.89,2.17,2.41c0.94,0.55,2.17,0.7,3.29,0.82c16.98,1.72,32.63,7.37,47.4,15.77
			c10.16,5.77,18.67,13.24,24.71,23.33c3.33,5.57,7,10.99,9.81,16.81c8.65,17.97,19.73,34.43,30.75,50.95
			c4.45,6.67,9.02,13.26,13.33,20.02c2.45,3.85,4.62,7.9,6.66,11.99c1.58,3.17,0.52,4.28-3.3,3.83c-4.96-0.59-9.83-0.67-14.77,0.61
			c-4.04,1.04-8.34,1.03-12.39,2.06c-21.81,5.51-41.4,15.43-58.49,30.12c-4.92,4.23-9.82,8.49-14.57,12.9
			c-1.93,1.79-3.11,5.21-5.22,5.79c-3.6,0.99-6.16-2.64-8.61-4.76c-5.47-4.74-10.77-9.8-15.47-15.3
			c-13.71-16.02-25.18-33.62-34.92-52.29c-8.47-16.25-16.39-32.79-24.58-49.19c-1.53-3.07-3.21-6.06-4.85-9.07
			c-0.13-0.23-0.55-0.3-0.83-0.44c-0.28,0.67-0.95,1.45-0.79,2c1.18,4.01,2.51,7.97,3.83,11.94c4.71,14.13,10.07,28.02,16.41,41.48
			c9.8,20.81,21.85,40.17,36.8,57.8c7.99,9.42,16.53,17.87,26.91,24.61c5.27,3.42,10.34,4.07,16.27,2.43
			c8.96-2.48,16.84-7.14,24.92-11.44c3.35-1.78,6.42-4.73,9.94-5.37c4.04-0.73,5.67,4.53,9.12,6.08c4.3,1.93,5.64,5.94,6.87,10.01
			c1.55,5.11,3.31,10.08,6.36,14.61c2.6,3.87,5.66,7.19,9.12,10.21c0.86,0.75,1.8,1.42,2.77,2.03
			c11.89,7.51,19.31,18.18,22.76,31.76c0.94,3.68,2.2,7.31,3.63,10.83c0.85,2.09,2.03,4.18,3.55,5.82
			c4.76,5.14,11.73,5.41,15.82-2.3c0.35-0.66,0.33-1.51,0.63-2.19c0.24-0.54,0.72-0.97,1.1-1.45c0.19,0.33,0.45,0.64,0.56,0.99
			c0.92,2.91,1.61,5.91,2.76,8.72c1.15,2.8,2.5,5.59,4.21,8.07c2.35,3.42,6.86,4.9,10.1,3.48c3.68-1.62,6.47-4.16,6.62-8.55
			c0.11-3.05-0.01-6.11,0.01-9.17c0-0.34,0.27-0.69,0.41-1.03c0.46,0.24,1.17,0.37,1.34,0.74c0.95,2.08,1.72,4.24,2.65,6.33
			c0.62,1.39,1.24,2.82,2.16,4.01c2.44,3.18,5.7,5.29,9.76,5.06c3.71-0.21,8.23-5.45,8.6-9.7c0.3-3.41,0.06-6.87,0.2-10.3
			c0.02-0.39,1.13-1.17,1.47-1.04c2.14,0.79,4.2,1.82,6.31,2.7c1.88,0.78,3.72,0.52,5.5-0.42c6.13-3.26,7.89-7.28,5.64-14.12
			c-1.9-5.78-4.36-11.39-6.32-17.15c-0.65-1.9-3.48-3.81-1.32-5.76c0.87-0.79,3.62,0.18,5.39,0.76c4.01,1.32,7.65,0.41,10.89-1.83
			c3.87-2.69,5.3-6.85,1.89-10.67c-6.34-7.13-12.59-14.35-18.86-21.54c-0.21-0.24-0.25-0.63-0.36-0.95c0.68-0.14,1.5-0.6,2.01-0.37
			c1.74,0.77,3.43,1.69,5.03,2.73c19.3,12.6,36.98,27.14,52.03,44.63c11.75,13.65,21.5,28.75,29.41,44.93
			c2.5,5.11,4.21,10.63,5.88,16.09c0.76,2.49,0.65,5.28,0.73,7.94c0.07,2.42-1.02,4.49-2.88,5.99c-1.77,1.43-3.74,2.62-5.63,3.9
			c-6.64,4.49-13.32,8.93-19.92,13.47c-3.63,2.49-5.64,5.8-6.23,10.4c-0.91,7.15-2.57,14.21-3.89,21.32
			c-2.94,15.8-7.94,30.93-13.75,45.91c-10.12,26.06-27.41,45.56-51.91,58.76c-6.38,3.44-12.93,6.6-19.52,9.63
			c-24.97,11.48-49.86,23.14-75.03,34.18c-17.79,7.8-35.71,15.46-54.82,19.66c-7.43,1.63-14.88,3.03-22.43,4.14
			c-7.97,1.18-15.97,1.27-23.89,2.25c-9.05,1.12-17.98,3.24-26.94,5.01c-12.7,2.5-25.43,4.75-38.3,6.27
			c-8.69,1.02-17.32,2.48-26,3.63c-3.02,0.4-6.09,0.65-9.13,0.68c-9.56,0.08-19.12,0.03-28.68,0.03
			C983.7,1453.37,983.7,1453.36,983.7,1453.35z M1273.71,1281.85c2.44-0.19,3.97-0.22,5.47-0.46c0.57-0.09,1.06-0.69,1.58-1.05
			c-0.3-0.23-0.58-0.6-0.92-0.67c-13.83-2.81-27.09-7.56-40.47-11.92c-14.24-4.64-27.48-11.4-40.35-18.8
			c-8.91-5.13-17.08-11.45-24.61-18.57c-13.06-12.35-25.33-25.37-35.75-40.07c-1.07-1.52-2.63-2.7-4.01-3.99
			c-0.17-0.16-0.7-0.17-0.89-0.02c-0.26,0.2-0.58,0.73-0.48,0.93c2.2,4.41,4.23,8.93,6.73,13.16
			c15.92,26.94,37.58,47.85,65.75,61.79c17.19,8.51,35.4,13.86,54.2,17.32C1264.83,1280.39,1269.71,1281.17,1273.71,1281.85z
			 M974.83,1329.32c-0.07-1.04-0.12-0.63,0-0.29c0.22,0.63,0.55,1.22,0.84,1.83c0.27-0.26,0.66-0.48,0.79-0.8
			c0.86-2.1,2.05-4.17,2.41-6.36c1.61-9.78,4.16-19.3,6.71-28.87c5.79-21.8,13.5-42.85,23.23-63.18
			c9.07-18.95,18.75-37.54,31.51-54.36c0.36-0.48,0.17-1.39,0.23-2.09c-0.63-0.05-1.56-0.39-1.85-0.1
			c-4.31,4.31-9.03,8.34-12.71,13.15c-14.46,18.89-25.76,39.51-34.05,61.89C982.62,1275.31,977.63,1301.35,974.83,1329.32z
			 M1380.91,1218.86c-0.46-2.7-1.32-7.17-1.98-11.67c-3.44-23.28-13.84-43.33-28.47-61.41c-0.45-0.55-1.17-0.9-1.82-1.25
			c-0.27-0.14-0.74-0.12-1,0.02c-0.26,0.14-0.6,0.66-0.52,0.82c3.54,6.74,7.59,13.25,10.59,20.22
			c7.23,16.77,14.04,33.72,18.21,51.59c0.6,2.57,1.65,5.03,2.54,7.53c0.11,0.31,0.74,0.76,0.78,0.73c0.46-0.38,1.1-0.78,1.22-1.29
			C1380.71,1223.03,1380.68,1221.87,1380.91,1218.86z"/>
		<path class="st1" d="M823.68,1441.66c-15.32,0.56-30.38-1.73-45.5-3.86c-27.6-3.89-53.38-12.89-77.21-27.12
			c-20.26-12.1-37.35-27.82-49.6-48.27c-6.73-11.23-10.73-23.61-13.82-36.24c-3.77-15.39-3.45-31.13-2.12-46.73
			c0.77-9.04,3.14-17.96,5.71-26.76c7.54-25.8,18.94-49.94,31.62-73.49c16.11-29.94,34.9-58.31,52.16-87.58
			c10.47-17.75,20.86-35.53,29.27-54.43c6.04-13.59,12.18-27.23,20.48-39.67c8.28-12.41,17.65-23.8,29.13-33.63
			c16.4-14.03,33.98-25.85,54.13-33.72c0.31-0.12,0.51-0.53,0.76-0.81c-0.64-0.37-1.3-1.08-1.9-1.04c-2.63,0.19-5.34,0.27-7.84,1
			c-12.55,3.66-24.37,9.04-35.02,16.59c-8.7,6.18-17.58,12.28-24.69,20.38c-5.79,6.59-11.23,13.48-16.85,20.22
			c-0.23,0.27-0.66,0.49-1,0.5c-0.2,0-0.57-0.46-0.59-0.73c-0.1-1.51-0.34-3.05-0.14-4.52c1.79-13.14,6.77-24.91,14.94-35.41
			c12.34-15.85,28.71-26.01,46.85-33.76c1.39-0.6,2.83-1.12,4.14-1.86c0.61-0.34,0.99-1.12,1.47-1.69c-0.6-0.27-1.28-0.89-1.8-0.77
			c-11.93,2.73-23.46,6.47-34.04,12.86c-16.85,10.17-29.95,23.49-36.68,42.37c-0.25,0.71-0.44,1.45-0.73,2.15
			c-0.07,0.17-0.38,0.24-0.58,0.36c-0.15-0.35-0.42-0.7-0.42-1.05c-0.04-2.29-0.28-4.62,0.02-6.87c3.54-26.33,14.12-49,35.08-66.07
			c10.47-8.53,22.27-14.73,35.18-18.69c8-2.46,16.11-4.52,24.17-6.78c0.72-0.2,1.43-0.46,2.1-0.78c0.22-0.1,0.48-0.62,0.41-0.7
			c-0.23-0.29-0.59-0.65-0.9-0.66c-3.82-0.1-7.69-0.59-11.44-0.14c-18.47,2.24-35.64,8.25-50.97,18.92
			c-20.01,13.93-32.46,33.22-38.13,56.66c-2.24,9.27-1.51,19.05-0.36,28.55c0.4,3.29,2.43,6.37,3.61,9.58
			c1.18,3.19-0.43,5.53-3.6,5.23c-2.27-0.21-4.62-0.34-6.76-1.06c-8.3-2.8-16.78-5.28-24.74-8.87
			c-23.32-10.51-46.43-21.49-69.62-32.29c-1.73-0.81-3.47-1.59-5.15-2.5c-2.08-1.13-3.62-2.67-4.13-5.17
			c-0.38-1.86-1.52-3.6-1.68-5.45c-1.08-12.47-4.26-24.8-1.07-37.51c1.47-5.84,1.25-12.04,2.45-18.08
			c4.93-24.91,15.74-46.74,31.75-66.39c8.13-9.98,17.79-17.77,28.56-24.41c7.13-4.4,7.22-4.26,14.7-1.17
			c9.87,4.07,19.63,8.47,29.63,12.18c19.29,7.16,38.84,13.54,58.65,19.19c23.81,6.78,47.96,12.4,71.43,20.39
			c13.41,4.56,26.36,10.2,38.58,17.35c11.97,7.01,22.36,15.86,30.48,27.31c8.47,11.94,12.11,25.38,12.96,39.68
			c1.23,20.82-3.01,40.94-8.35,60.9c-5.52,20.63-11.99,40.96-18.6,61.26c-8.15,25.01-15.92,50.14-23.6,75.29
			c-4.12,13.48-7.69,27.12-11.53,40.68c-0.62,2.2-1.5,4.34-1.99,6.56c-1.44,6.48-5.52,10.65-11.19,13.72
			c-11.53,6.23-23.97,9.78-36.68,12.48c-5.21,1.11-10.51,1.79-15.73,2.88c-2.97,0.62-5.92,1.53-8.77,2.59
			c-8.04,2.99-9.4,6.64-5.13,13.85c2.53,4.27,5.36,8.36,7.97,12.58c1.16,1.88,0.33,4.02-1.68,4.48c-18.7,4.3-36.23,11.74-53.58,19.7
			c-0.67,0.31-1.23,0.9-1.79,1.41c-0.27,0.25-0.43,0.63-0.63,0.94c0.57,0.26,1.15,0.74,1.7,0.71c0.72-0.03,1.42-0.51,2.14-0.72
			c14.27-4.12,28.55-8.25,42.83-12.33c2.93-0.84,5.87-1.65,8.86-2.2c2.52-0.46,5.37-3.19,7.48-0.86c2.19,2.42,3.32,5.86,4.59,8.99
			c0.3,0.74-0.54,2.16-1.21,2.99c-0.69,0.86-1.79,1.4-2.72,2.06c-5.29,3.76-10.61,7.46-15.85,11.28c-1.63,1.19-4.31,1.54-4.06,4.47
			c2.1-0.66,4.28-1.12,6.27-2.02c2.07-0.95,3.91-2.38,5.92-3.49c10.47-5.79,15.81-7.68,15.29-6.06c-1.73,5.34-6.5,8.35-9.89,12.43
			c-17.38,20.91-37.08,39.61-56.21,58.85c-1.07,1.07-2,2.29-2.95,3.48c-0.17,0.21-0.14,0.89-0.1,0.9c0.68,0.16,1.43,0.46,2.06,0.31
			c0.7-0.17,1.32-0.74,1.94-1.18c17.07-12.33,33.33-25.63,47.74-41.01c7.03-7.51,13.41-15.64,20.06-23.51
			c1.38-1.64,2.08-1.58,3.09,0.58c4.21,8.98,8.36,17.98,12.59,26.95c0.86,1.83,1.05,3.62,0.37,5.52c-1.8,5.03-3.57,10.06-5.38,15.09
			c-6.6,18.33-11.05,37.24-14.47,56.37c-3.51,19.63-3.64,39.51-2.62,59.37c0.25,4.91,1.62,9.75,2.35,14.64
			c0.42,2.84-0.83,4.25-3.83,4.3C834.39,1441.73,829.03,1441.66,823.68,1441.66z"/>
		<path class="st1" d="M1371.15,721.58c-3.52-0.15-5.39,2.49-7.61,4.53c-0.89,0.82-0.7,2.48,0.35,2.75
			c2.94,0.76,5.89,1.49,8.85,2.11c5.44,1.14,7.16,6.03,3.3,10.18c-4.16,4.48-8.53,8.77-13.02,12.92c-1.31,1.21-3.26,2.02-5.05,2.39
			c-3.71,0.76-7.5,1.39-11.28,1.54c-5.04,0.21-8.95,2.25-11.46,6.45c-3.33,5.55-6.31,11.32-9.38,17.02
			c-1.26,2.34-2.17,4.88-3.54,7.14c-3.15,5.17-6.72,5.83-11.24,2.27c-0.9-0.71-1.61-1.64-2.5-2.36c-4.16-3.4-6.34-3.38-9.83,0.17
			c-1.34,1.36-2.5,2.9-3.86,4.24c-2.66,2.61-5.39,2.85-8.18,0.69c-1.51-1.16-2.77-2.65-4.3-3.78c-0.85-0.63-2.03-1.2-3.04-1.17
			c-2.1,0.06-1.89,1.9-2.02,3.35c-0.07,0.76,0.06,1.53-0.01,2.29c-0.47,5.04-0.54,5.28-6.49,4.43c-2.17-0.31-3.72,0.3-5.25,1.34
			c-2.84,1.93-5.5,4.13-8.33,6.07c-5.71,3.9-11.16,3.67-16.95-0.38c-4.9-3.42-8.25-7.89-11.03-12.92
			c-5.05-9.13-7.28-19.14-9.25-29.3c-1.68-8.66-1.84-17.4-2.64-26.11c-0.03-0.33-0.49-0.93-0.61-0.9c-0.67,0.18-1.62,0.34-1.89,0.83
			c-0.73,1.3-1.54,2.73-1.63,4.16c-0.33,5.34-0.47,10.69-0.52,16.04c-0.03,3.44,0.26,6.87,0.34,10.31c0.07,3.18-1.29,4.69-3.97,3.8
			c-5.22-1.73-10.55-1.52-15.89-1.66c-5.04-0.13-5.2-0.33-2.56-5.23c7.79-14.49,14.62-29.38,19.33-45.19
			c4.57-15.34,8.25-30.84,10.7-46.71c1.41-9.13,1.75-18.2,2.1-27.34c0.12-3.05,0.03-6.14,0.45-9.15c1.06-7.59,3.23-14.8,6.96-21.62
			c11.66-21.31,27.91-38.16,48.85-50.36c7.65-4.46,16.25-6.47,25.08-7.3c1.89-0.18,3.78-0.38,5.67-0.64
			c0.31-0.04,0.66-0.44,0.82-0.76c0.06-0.13-0.3-0.66-0.53-0.71c-4.82-1.08-9.65-2.1-14.47-3.17c-0.34-0.08-0.63-0.42-0.94-0.65
			c0.24-0.19,0.45-0.48,0.72-0.56c0.73-0.19,1.48-0.37,2.23-0.42c12.35-0.84,24.43-0.14,35.62,6c0.54,0.3,1.66,0.28,2.1-0.09
			c1.24-1.01,0.18-2.07-0.45-2.82c-1.97-2.34-4.08-4.55-6.14-6.81c-0.51-0.56-1.07-1.09-1.55-1.68c-0.17-0.21-0.29-0.72-0.18-0.82
			c0.24-0.22,0.71-0.46,0.97-0.37c6.21,2.22,11.75,5.45,15.74,10.87c1.36,1.84,2.57,3.8,3.85,5.7c2.35,3.5,2.35,3.5,5.38-0.26
			c0.47-0.59,0.84-1.25,1.26-1.88c0.41,0.85,0.92,1.67,1.18,2.56c0.21,0.71,0.01,1.53,0.17,2.26c0.24,1.09,0.44,2.04,2.15,1.85
			c5.3-0.58,10.63-0.95,15.96-1.33c8.02-0.57,14.96,2.36,21.41,6.77c2.42,1.65,3.79,4.01,2.8,4.07c-1.4,0.09-2.86-0.29-4.23-0.68
			c-3.3-0.93-6.52-2.17-9.86-2.9c-1.35-0.3-3.73-0.07-4.2,0.75c-0.83,1.46,0.98,2.54,2.25,3.11c16.51,7.45,27.18,20.43,35.21,36.19
			c7.71,15.14,12.73,30.95,14.11,47.94c0.46,5.68,1.24,11.41,2.66,16.91c2.2,8.53,5.31,16.76,11.67,23.3
			c0.31,0.31,0.09,1.14,0.11,1.72c-0.73-0.07-1.47-0.14-2.2-0.23c-0.7-0.08-1.4-0.19-2.1-0.29c0.07,1.02-0.16,2.22,0.29,3.02
			c0.74,1.3,1.85,2.43,2.97,3.46c1.68,1.54,3.51,2.93,5.26,4.4c0.24,0.21,0.39,0.52,0.59,0.79c-0.69,0.25-1.52,0.88-2.04,0.69
			c-3.19-1.18-6.33-2.51-9.45-3.87c-1.72-0.75-3.33-1.78-5.08-2.45c-0.4-0.16-1.73,0.73-1.68,0.96c0.66,3.37,1.62,6.68,2.2,10.05
			c0.51,2.98,0.64,6.03,0.89,9.06c0.03,0.34-0.24,0.71-0.37,1.06c-0.4-0.38-0.91-0.71-1.19-1.17c-0.6-0.97-1.01-2.06-1.64-3.02
			c-0.61-0.93-1.38-1.75-2.08-2.62c-0.49,0.95-1.25,1.85-1.42,2.85c-0.86,5.26-1.14,10.65-2.44,15.78
			c-1.2,4.76-3.35,9.29-5.25,13.85c-0.4,0.96-1.53,1.61-2.33,2.41c-0.37-0.95-1.02-1.89-1.06-2.85c-0.24-5.7-0.33-11.4-0.52-17.1
			c-0.01-0.31-0.39-0.77-0.69-0.86c-0.3-0.09-0.87,0.08-1.05,0.33c-1.08,1.53-2.08,3.11-3.09,4.69c-2.67,4.16-5.3,8.34-8.04,12.46
			c-0.34,0.51-1.21,0.65-1.84,0.96c-0.16-0.67-0.59-1.41-0.45-2.01c0.44-1.83,1.12-3.59,1.64-5.4c0.09-0.31-0.1-0.74-0.24-1.08
			c-0.39-0.93-1.08-1.1-1.81-0.33c-5.09,5.34-10.98,9.42-18.13,11.51c-0.32,0.09-0.75-0.02-1.06-0.18c-0.19-0.1-0.4-0.53-0.33-0.69
			c0.14-0.33,0.42-0.67,0.73-0.85c5.75-3.38,7.89-9.07,9.71-15.01c1.43-4.68,1.5-4.59-4.09-3.96c-0.73,0.08-2.32-1.12-2.28-1.63
			c0.18-2.24,0.78-4.45,1.27-6.66c0.45-2.02-0.06-3.86-1.39-5.31c-0.66-0.72-2.01-1.54-2.76-1.33c-3.27,0.95-6.42,2.32-9.67,3.37
			c-0.37,0.12-1.09-0.83-1.64-1.28c5.43-2.87,8.36-7.6,9.93-13.34c0.1-0.37,0.39-0.8,0.28-1.08c-0.22-0.57-0.59-1.13-1.04-1.55
			c-0.2-0.19-0.81-0.15-1.1,0.02c-3.88,2.15-6.91,6.09-12.18,5.28c-1.78-0.27-3.7,0.32-5.55,0.51c-1.19-2.69,1.9-3.53,2.42-5.52
			c0.38-1.46,1.17-2.82,1.73-4.24c0.52-1.3-0.77-2.47-2.68-2.47c-3.12,0-3.11,0-2.39-2.46c0.32-1.08,0.72-2.15,0.83-3.25
			c0.03-0.28-1.26-1.04-1.4-0.93c-3.77,3.15-7.53,5.3-12.19,1.41c-0.62-0.52-2.35-0.32-3.23,0.17c-6.56,3.66-12.91,5.76-20.61,2.37
			c-4.06-1.78-8.92,0-13.39,1.44c-6.94,2.23-13.51,5.22-20.05,8.35c-3.43,1.64-5.96,0.16-6.24-3.79c-0.18-2.57,0.31-5.18,0.31-7.77
			c0-0.26-1.43-0.92-1.9-0.71c-2.77,1.22-4.26,3.63-3.68,6.34c0.71,3.35,1.54,6.71,2.8,9.88c0.44,1.1,2.25,2.1,3.57,2.32
			c3.58,0.6,6.66-1.28,9.78-2.69c5.9-2.65,11.58-5.69,18-7.25c4.32-1.05,8.05-1.6,12.06,0.71c1.55,0.89,3.65,1.39,5.42,1.23
			c5.3-0.47,10.74-0.73,15.78-2.25c4.64-1.41,7.29,0.46,9.8,3.49c0.41,0.49,0.03,2.4-0.58,2.82c-1.52,1.07-3.42,1.58-5.07,2.49
			c-0.59,0.33-1.14,1.15-1.22,1.8c-0.05,0.43,0.69,1.27,1.22,1.41c5.87,1.56,11.71,3.25,17.91,3.17
			C1370.86,718.03,1371.02,720.06,1371.15,721.58z M1237.85,687.72c0.07,1.1-0.03,3.43,0.42,5.65c0.69,3.43,2.14,6.56,5.38,8.4
			c0.89,0.51,2.04,0.57,3.07,0.84c-0.01-1.01,0.4-2.43-0.11-2.96c-2.88-2.97-3.68-6.46-3.7-10.46
			c-0.09-14.54,7.55-24.28,19.27-31.56c4.52-2.81,9.52-2.59,14.45-1.73c4.89,0.85,9.33,6.45,9.72,11.41
			c0.48,6.07-1.64,11.19-5.28,15.87c-0.21,0.27,0.24,1.16,0.55,1.66c0.11,0.17,0.76,0.14,1.1,0.02c3.03-1.07,5.24-3.29,6.7-5.94
			c5.59-10.1,5.79-18.39-4.44-26.15c-5.23-3.97-11.62-5.35-18.43-3.44C1250.1,653.93,1238.08,669.4,1237.85,687.72z"/>
		<path class="st1" d="M1539.33,1014.03c-0.05,6.56-0.43,11.48-2.45,16.15c-0.58,1.35,0.61,3.24,2.04,3.52
			c5.97,1.16,11.81,3.19,18.04,2.67c0.32-0.03,0.66,0.29,1,0.45c-0.35,0.42-0.63,1.09-1.06,1.2c-3.67,1-7.37,1.86-11.03,2.89
			c-0.5,0.14-1.22,1-1.14,1.4c0.12,0.65,0.69,1.56,1.27,1.75c3.95,1.31,7.95,2.49,11.95,3.65c1.63,0.47,3.31,0.8,4.96,1.19
			c-1.76,0.71-3.46,1.61-5.28,2.09c-2.56,0.67-5.21,1.02-7.82,1.54c-1.06,0.21-1.33,0.85-0.69,1.68c0.93,1.19,1.9,2.35,2.89,3.49
			c3.78,4.36,6.93,9.12,9.1,14.48c0.4,0.98,0.7,2.7,0.18,3.22c-1.37,1.37-1.36-0.72-1.94-1.25c-3.1-2.81-6.03-5.82-9.19-8.55
			c-1.99-1.72-5.08-2.15-5-1.19c0.11,1.41,0.39,2.88,0.97,4.17c1.87,4.16,4.54,8.04,4.14,12.9c-0.05,0.62-0.57,1.2-0.87,1.8
			c-0.27-0.26-0.62-0.48-0.81-0.8c-2.4-3.93-5-7.68-8.93-10.28c-0.3-0.2-0.84-0.42-1.06-0.29c-0.53,0.32-1.29,0.81-1.34,1.3
			c-0.23,1.89-0.36,3.81-0.27,5.72c0.46,10.1-3.81,18.51-9.34,26.48c-0.21,0.3-0.58,0.49-0.87,0.73c-0.26-0.52-0.86-1.15-0.74-1.55
			c1.01-3.27,2.39-6.45,3.18-9.77c0.6-2.55,0.58-5.26,0.66-7.9c0.02-0.53-0.75-1.08-1.15-1.62c-0.31,0.23-0.72,0.4-0.9,0.7
			c-0.76,1.32-1.49,2.67-2.15,4.04c-8.06,16.78-20.75,29.01-36.96,37.9c-9.74,5.34-20.04,9.35-30.33,13.41
			c-6.38,2.52-12.93,4.62-19.28,7.24c-10.24,4.21-20.48,8.45-29.55,15.01c-2.32,1.68-3.8,1.2-5.65-1.41
			c-4.63-6.55-8.99-13.29-13.89-19.62c-21.11-27.31-46.76-49.16-77.97-64.28c-12.7-6.15-25.06-13.11-39.32-15.2
			c-1.44-0.21-2.33-2.13-1.94-3.56c1.26-4.59,3.29-8.46,8.22-10.21c2.34-0.83,3.48-2.84,3.26-5.46c-0.1-1.14-0.09-2.29-0.12-3.44
			c-0.05-2.43,0.84-4.46,2.67-6.07c1.43-1.26,2.85-2.55,4.33-3.75c2.37-1.92,3.28-4.25,1.84-7.05c-1.62-3.15-2.32-6.43-2.25-9.94
			c0.07-3.55,1.43-5.81,4.92-6.85c5.84-1.73,11.78-3.12,17.66-4.71c3.67-1,7.38-1.93,10.96-3.22c5.25-1.89,9.28-5.26,11.42-10.58
			c1.28-3.18,2.62-6.35,3.75-9.58c1.48-4.22,4.2-7.14,8.3-8.92c8.79-3.82,18.04-6.08,27.3-8.35c1.08-0.27,2.29-0.18,3.42-0.06
			c4.92,0.55,9.84,1.15,14.75,1.79c0.72,0.09,1.39,0.52,2.08,0.79c-0.38,0.65-0.7,1.36-1.15,1.96c-1.38,1.82-2.98,3.5-4.2,5.43
			c-2.09,3.32-3.42,7.1-2.42,10.92c2.12,8.06-1.59,14-6.35,19.68c-1.47,1.75-3.22,3.26-4.85,4.87c-2.17,2.15-4.31,4.34-6.54,6.44
			c-4.43,4.18-4.9,8.08,0.99,12.12c0.63,0.43,1.23,0.93,1.92,1.25c10.13,4.59,8.71,7.75,22.47,2.7c5.13-1.88,9.78-0.39,14.38,1.33
			c3.51,1.31,5.7,5.83,4.63,9.53c-0.83,2.88-1.91,5.96-3.77,8.21c-10.74,12.97-24.68,18.87-41.48,17.36
			c-2.47-0.22-4.79-2.07-7.2-3.13c-0.27-0.12-0.89-0.1-0.95,0.03c-0.29,0.66-0.78,1.49-0.59,2.05c1,2.98,2.55,5.4,5.9,6.45
			c3.68,1.15,7.35,2.32,11.21,1.72c11.4-1.79,22.45-4.62,31.72-12.01c8.85-7.05,12.29-16.3,10.6-27.42
			c-0.63-4.12-3.3-6.96-7.03-8.41c-6.5-2.54-13.16-4.09-20-0.95c-1.73,0.79-3.52,1.54-5.36,1.93c-1.4,0.3-3.12,0.43-4.37-0.12
			c-3.13-1.38-6.1-3.15-9.09-4.84c-1.99-1.13-2.08-2.75-0.24-4.57c2.72-2.69,5.69-5.15,8.19-8.02c3.25-3.72,6.33-7.63,9.15-11.69
			c2.43-3.51,3.92-7.6,3.3-11.91c-1.08-7.53,1.61-13.42,7.04-18.36c0.56-0.51,0.97-1.17,1.44-1.78c1.22-1.59,0.55-3.73-1.61-4.5
			c-2.49-0.88-5.06-1.59-7.63-2.21c-2.21-0.53-4.5-0.74-6.72-1.24c-2.04-0.46-2.47-1.56-2.16-4.86c0.2-2.17-1.6-3.62-3.59-2.67
			c-2.03,0.97-3.92,2.25-5.85,3.42c-1.27,0.77-2.5,1.61-3.79,2.34c-0.22,0.12-0.74-0.06-0.98-0.26c-0.25-0.21-0.55-0.7-0.46-0.92
			c1.19-2.76,2.22-5.62,3.75-8.18c0.95-1.58,2.61-2.77,4.06-4.01c2.02-1.73,4.13-3.35,6.21-5.02c-2.19-1.33-4.48-2.53-6.55-4.02
			c-1.83-1.31-3.43-2.92-5.1-4.45c-0.22-0.2-0.34-0.75-0.23-1.01c0.14-0.3,0.57-0.59,0.91-0.64c0.74-0.09,1.57-0.24,2.23,0.01
			c8.12,3.07,16.6,1.97,24.95,2.21c2.14,0.06,3.14-1.23,3.28-3.74c0.19-3.43,0.35-6.86,0.56-10.28c0.02-0.35,0.33-0.68,0.5-1.02
			c0.22,0.3,0.55,0.57,0.64,0.9c1.02,3.73,2.49,7.22,5.23,10.04c0.25,0.26,0.92,0.54,0.99,0.46c0.45-0.5,1.16-1.17,1.08-1.67
			c-0.48-2.97-1.18-5.91-1.74-8.88c-0.05-0.28,0.29-0.69,0.55-0.95c0.08-0.08,0.57,0.06,0.7,0.23c1.59,2.14,3.01,4.42,4.73,6.45
			c5.53,6.54,11.99,11.65,20.52,13.93c5.51,1.47,10.81,3.74,16.3,5.31c14.17,4.05,26.71,11.37,38.46,19.9
			c10.19,7.39,19.61,15.75,27.24,26.02c5.53,7.44,10.26,15.13,12.66,24.16c0.67,2.54,1.87,4.94,2.96,7.35
			c0.07,0.16,1.45,0.09,1.79-0.27c1.92-2.05,2.3-4.74,2.78-7.38c0.09-0.5,0.66-0.92,1.01-1.38c0.28,0.69,0.74,1.35,0.81,2.06
			C1539.29,1011.79,1539.32,1013.7,1539.33,1014.03z"/>
		<path class="st1" d="M632.23,988.81c-0.08-1.49,0.09-2.35-0.19-3c-2.01-4.56-0.64-8.92,0.34-13.43
			c1.12-5.19,2.37-10.37,3.28-15.63c0.8-4.61-0.37-9.89,3.17-13.92c4.21,1.71,8.44,3.39,12.64,5.15
			c23.59,9.88,46.84,20.51,69.87,31.62c12.4,5.98,25.09,11.11,38.79,13.37c2.71,0.45,3.85,2.42,2.98,4.93
			c-0.75,2.15-1.6,4.29-2.61,6.34c-8.97,18.14-17.56,36.49-27.12,54.32c-8.65,16.13-18.27,31.74-27.62,47.49
			c-12.08,20.35-24.87,40.3-36.33,60.99c-12.75,23.03-24.73,46.52-33.03,71.66c-0.48,1.44-1.19,2.81-1.83,4.2
			c-0.67,1.45-1.75,1.13-2.57,0.32c-1.9-1.88-3.64-3.92-5.48-5.86c-22.74-24.01-50.35-39.06-82.73-45.93
			c-9.9-2.1-19.69-1.98-29.6-1.95c-1.91,0-3.85,0.25-5.7-0.08c-0.66-0.12-1.74-1.82-1.53-2.38c2.96-7.84,5.75-15.78,9.28-23.36
			c9.03-19.38,18.25-38.67,27.72-57.84c11.18-22.65,24.53-43.97,40.17-63.87c5.88-7.48,11.1-15.52,16.21-23.56
			c3.57-5.6,8.03-10.15,13.32-14.01c5.24-3.82,10.56-7.54,15.68-11.53C630.72,991.74,631.5,989.86,632.23,988.81z"/>
		<path class="st1" d="M521.65,1197.08c11.59-0.18,22.65,2.75,33.59,6.09c12.45,3.81,24.33,8.99,35.5,15.74
			c1.61,0.97,1.89,2.18,0.73,3.7c-5.1,6.68-10.26,13.3-15.37,19.96c-4.65,6.05-9.12,12.25-13.95,18.16
			c-12.84,15.69-21,33.54-25.22,53.29c-0.8,3.72-2.22,7.35-2.61,11.1c-0.7,6.63-3.04,12.6-6.29,18.26
			c-2.37,4.14-3.67,8.15-2.1,13.03c0.91,2.82,0.45,6.07,0.77,9.1c1.21,11.75,2.69,23.46,6.56,34.71c0.87,2.52,1.74,5.06,2.9,7.45
			c1.92,3.97,4.79,6.8,9.54,7.28c1.86,0.19,3.69,0.88,5.47,1.51c4.99,1.76,6.91,5.79,7.28,10.64c0.1,1.38-0.55,3.03-1.34,4.24
			c-2.68,4.11-6.43,6.47-11.54,6.04c-3.04-0.25-6.31,0.05-9.05-1c-4.49-1.72-7.7-0.7-11.62,1.85c-4.73,3.09-10.32,2.58-15.08-0.67
			c-2.61-1.78-4.81-1.83-7.32-0.28c-3.62,2.24-7.23,2.02-10.79-0.1c-2.69-1.61-5.39-2.93-8.63-1.68c-4.96,1.92-9.19,0.13-12.28-3.5
			c-2.19-2.58-4.52-3.39-7.65-4.12c-12.17-2.83-19.11-12.15-20.58-24.52c-0.27-2.26-0.08-4.58,0.03-6.87
			c0.23-5.03-0.29-9.84-2.52-14.51c-1.29-2.71-2.08-5.75-2.59-8.73c-1.53-8.88,1.54-16.55,6.87-23.47
			c3.5-4.54,7.14-8.96,10.72-13.43c5.45-6.79,8.79-14.27,7.8-23.23c-0.91-8.23,1.95-15.05,8.01-20.52
			c10.53-9.51,16.97-21.69,21.47-34.75c5.96-17.28,10.98-34.89,16.38-52.37c0.45-1.45,0.69-2.97,1.15-4.42
			c0.89-2.75,2.26-3.9,4.87-3.99C517.06,1197.01,519.36,1197.08,521.65,1197.08z"/>
		<path class="st1" d="M552.46,739.12c1.01-6.1,1.68-12.15,5.24-17.41c4.28-6.33,8.73-12.44,14.78-17.32
			c5.05-4.07,9.59-8.75,14.44-13.08c15.54-13.89,27.88-30.29,38.25-48.27c4.76-8.26,9.58-16.46,16.06-23.62
			c4.19-4.64,8.61-8.55,14.73-10.32c4.48-1.3,8.23-3.68,11.36-7.31c3.36-3.88,7.61-6.32,13.1-5.68c2.54,0.3,3.99-1.15,5.59-3.09
			c5.47-6.66,11.15-7.92,19.23-4.24c2.89,1.31,5.26,2.61,8.47,0.78c1.51-0.86,3.7-0.66,5.58-0.74c3.88-0.17,6.45,1.94,8.3,5.11
			c1.39,2.4,1.09,5.59-0.68,7.46c-0.79,0.83-1.59,1.67-2.5,2.35c-7.02,5.25-13.92,10.69-21.17,15.62
			c-6.19,4.21-10.99,9.43-14.03,16.22c-2.49,5.56-5.08,11.1-7.16,16.82c-5.61,15.4-10.56,31-14.25,47
			c-1.92,8.33-1.6,16.68-0.9,25.05c0.15,1.84,1,3.66,1.68,5.43c5.33,13.85,14.18,25.14,25.32,34.77c1.16,1,2.34,1.97,3.45,3.02
			c6.51,6.17,8.89,5.14-0.89,11.5c-14.69,9.55-26.09,22.18-34.77,37.35c-2.27,3.97-4.7,7.85-7.08,11.76
			c-0.59,0.98-2.05,0.92-2.91-0.07c-6.24-7.21-12.18-14.72-18.79-21.59c-14.13-14.68-29.99-27.04-49.03-34.98
			c-7.74-3.23-15.3-6.83-21.69-12.58C556.13,753.63,553.05,747.03,552.46,739.12z"/>
		<path class="st1" d="M638.54,879.09c-2.87,12.48-1.74,25.12-1.45,37.69c0.1,4.14,1.37,8.24,2.02,12.37
			c0.34,2.17-1.21,3.89-3.23,3.53c-3.37-0.6-6.67-1.64-10.06-2.04c-17.18-2.04-33.54,0.62-48.58,9.42
			c-5.32,3.11-10.77,5.75-16.75,7.17c-2.94,0.7-5.95,1.31-8.95,1.52c-13.65,0.93-25.52-8.23-28.26-21.76
			c-1.86-9.19-3.88-18.52-1.74-28.32c1.26-5.77,0.15-12.13-0.31-18.19c-0.41-5.3-1.23-10.59-2.2-15.83
			c-1.88-10.19-6.05-19.65-9.83-29.22c-1.54-3.9-3.13-7.79-4.53-11.74c-3.85-10.89-5.8-22.08-5.53-33.68
			c0.1-4.32,0.46-8.36,3.34-11.82c1.59-1.91,2-4.12,1.12-6.44c-1.85-4.9,0.48-8.05,4.38-10.44c1.84-1.13,2.68-2.32,2.14-4.61
			c-0.31-1.34-0.27-3.32,0.51-4.27c3.05-3.73,6.28-7.99,10.68-9.48c3.81-1.29,5.71-2.82,6.8-6.46c1.13-3.78,3.66-6.54,7.4-8.28
			c2.82-1.32,5.21-0.89,7.51,0.75c0.83,0.6,1.58,1.67,1.8,2.65c0.32,1.46,0.29,3.05,0.14,4.56c-1.13,11.05,3.31,20.26,10.02,28.38
			c2.84,3.43,4.63,7.07,5.34,11.16c1.53,8.8,5.04,16.78,9.35,24.46c5.61,9.99,10.98,20.14,17.21,29.73
			c6.3,9.68,14.53,17.61,24.91,23.19c8.46,4.55,17.41,7.7,26.54,10.51c2.41,0.74,2.95,1.98,2.47,4.34
			C640.04,871.64,639.29,875.37,638.54,879.09z"/>
		<path class="st1" d="M1283.91,848.43c-0.38,8.75-2.26,15.7-5.24,22.37c-2.02,4.52-4.19,8.98-6.26,13.48
			c-1.62,3.52-2.4,7.17-2.24,11.09c0.19,4.58-0.1,9.17,0.09,13.75c0.73,17.22-2.52,34.23-2.57,51.4
			c-2.05,8.23-1.54,16.68-2.25,25.02c-0.85,9.84-2.36,19.63-3.57,29.44c-0.23,1.89-0.4,3.8-0.52,5.7
			c-0.79,11.78-1.56,23.56-2.34,35.34c-0.14,2.05-1.26,2.72-3.02,1.67c-2.61-1.56-5.33-3.03-7.66-4.95
			c-2.78-2.29-3.68-6.42-1.42-9.28c5.59-7.08,2.64-13.81-0.43-20.38c-2.09-4.46-4.91-8.64-7.77-12.68
			c-15.86-22.46-30.8-45.49-43.7-69.82c-3.75-7.06-8.28-13.71-12.49-20.53c-0.96-1.56-0.84-2.84,0.69-3.87
			c16.93-11.33,29.22-26.77,38.58-44.55c5.69-10.81,9.39-22.49,11.98-34.45c0.31-1.45,0.08-3.05-0.1-4.55c-0.06-0.54-0.72-1-1.1-1.5
			c-0.24,0.29-0.6,0.54-0.71,0.87c-4.71,14.63-11.95,28.06-19.81,41.15c-8.35,13.91-19.51,25.38-32.04,35.56
			c-1.33,1.08-2.67,0.46-3.3-1.45c-0.47-1.45-0.8-2.95-1.39-4.35c-2.05-4.87-0.93-8.57,3.15-12.12
			c8.11-7.03,14.74-15.43,20.98-24.16c12.37-17.34,19.85-36.81,25.34-57.18c0.3-1.1,0.51-2.22,0.82-3.31
			c0.3-1.07,1.91-1.44,2.82-0.62c2.28,2.03,4.44,4.2,6.8,6.14c6.93,5.69,16.49,6.62,24.58,1.65c2.27-1.4,4.52-2.88,6.63-4.51
			c3.03-2.33,6.38-2.2,9.83-1.66c1.71,0.26,2.66,1.33,2.85,3.02c0.96,8.32,1.84,16.65,2.86,24.96
			C1282.59,840.03,1283.4,844.9,1283.91,848.43z M1265.5,867.07c-0.1-0.57-0.08-0.98-0.26-1.26c-0.15-0.23-0.64-0.49-0.81-0.4
			c-0.66,0.34-1.35,0.73-1.87,1.26c-13.62,14.01-29.2,25.43-46.23,34.97c-2.97,1.67-5.76,3.67-8.56,5.62
			c-0.48,0.33-0.95,1.49-0.73,1.8c0.34,0.51,1.38,1.03,1.9,0.86c3.58-1.18,7.14-2.46,10.64-3.86c18.56-7.45,33.05-19.9,44.38-36.2
			C1264.59,868.94,1265.05,867.9,1265.5,867.07z"/>
		<path class="st1" d="M990.26,1045.16c1.22,0.87,2.34,1.34,2.96,2.18c1.37,1.82,2.48,3.83,3.71,5.76
			c8.45,13.23,18.27,25.35,29.48,36.34c1.64,1.6,3.23,3.25,4.86,4.86c1.43,1.42,2.18,2.76,1.21,4.99
			c-3.19,7.33-6.02,14.82-9.18,22.16c-3.92,9.09-8.24,18.02-11.97,27.19c-1.1,2.7-2.63,4.52-4.91,5.96
			c-12,7.55-22.23,17.34-33.22,26.16c-6.58,5.28-13.99,9.13-21.29,13.19c-0.42,0.24-1.53-0.15-1.92-0.6
			c-0.74-0.83-1.29-1.88-1.76-2.91c-6.25-13.86-16.9-23.28-30.25-29.97c-1.36-0.68-2.76-1.29-4.14-1.95
			c-1.84-0.89-2.83-1.79-2.05-4.34c2.24-7.26,3.81-14.73,6.04-21.99c5.48-17.82,11.16-35.58,16.82-53.35
			c0.79-2.49,1.53-4.9,4.29-6.38c15.46-8.28,30.79-16.78,46.2-25.15C986.76,1046.43,988.56,1045.86,990.26,1045.16z"/>
		<path class="st1" d="M1264.19,1121.81c5.01,12.48,7.03,25.61,8.81,38.84c0.71,5.25,2.75,10.35,1.28,15.73
			c-0.14,0.51-1.11,0.85-1.75,1.13c-0.27,0.12-0.78,0-1.04-0.19c-0.6-0.45-1.31-0.91-1.63-1.54c-0.67-1.35-1.23-2.78-1.65-4.23
			c-1.49-5.11-2.74-10.3-4.38-15.36c-2.46-7.6-5-15.18-7.82-22.64c-1.92-5.06-5.24-9.29-9.4-12.79c-0.55-0.46-1.75-0.98-2.03-0.74
			c-0.74,0.62-1.68,1.73-1.58,2.51c0.82,6.01,1.89,12,2.84,17.99c1.13,7.12,2.25,14.24,3.28,21.38c0.09,0.64-0.46,1.95-0.77,1.97
			c-1.01,0.07-2.44,0.04-3.03-0.59c-3.52-3.78-4.48-8.81-5.8-13.52c-1.44-5.17-3.25-10.13-5.42-15.01
			c-2.72-6.11-6.91-10.92-12.2-14.87c-2.44-1.82-4.99-3.52-7.31-5.5c-6.19-5.27-11.26-11.27-13.6-19.36
			c-1.37-4.73-3.6-9.22-5.45-13.82c-0.95-2.37-0.42-4.47,1.2-6.35c7.15-8.27,16.08-13.96,26.25-17.77c2.85-1.07,5.96-1.5,8.69-2.77
			c4.07-1.9,6.84-0.9,10.06,2.12c7.34,6.9,16.45,10.94,25.82,14.36c3.58,1.31,7.14,2.66,10.72,3.93
			c7.69,2.73,13.71,8.14,20.42,12.47c12.1,7.82,20.86,18.87,29.86,29.73c0.19,0.22,0.28,0.87,0.19,0.92
			c-0.64,0.36-1.32,0.81-2.01,0.86c-5.69,0.41-10.55-1.66-14.5-5.58c-2.69-2.67-4.84-5.88-7.44-8.66c-3.1-3.32-6.42-6.44-9.68-9.61
			c-0.14-0.13-0.68-0.02-0.9,0.15c-0.28,0.21-0.61,0.61-0.59,0.9c0.08,1.11,0.02,2.35,0.52,3.28c2.34,4.36,4.64,8.76,7.32,12.91
			c7.7,11.93,13.43,24.77,17.9,38.2c0.36,1.07,0.86,2.25,0.7,3.29c-0.16,0.99-0.97,1.99-1.76,2.71c-0.36,0.33-1.64,0.26-1.99-0.11
			c-2.34-2.47-4.84-4.88-6.7-7.69c-2.73-4.12-5.06-8.52-7.42-12.88c-4.59-8.46-10.37-15.99-17.51-22.45
			c-0.43-0.38-1.26-0.32-1.9-0.46c-0.12,0.69-0.51,1.48-0.31,2.06c0.37,1.06,1.05,2.01,1.66,2.97c7.97,12.45,11.84,26.29,13.9,40.75
			c0.38,2.63,1.15,5.21,1.49,7.84c0.19,1.47,0.13,3.09-0.3,4.49c-0.29,0.94-1.31,2.07-2.21,2.29c-0.84,0.2-2.39-0.41-2.84-1.14
			c-1.19-1.92-2.05-4.07-2.87-6.19c-2.32-6.04-4.42-12.17-6.85-18.17c-4.04-10-10.23-18.68-17.17-26.85
			c-0.57-0.67-1.84-0.72-2.79-1.07C1264.37,1120.42,1263.96,1121.24,1264.19,1121.81z"/>
		<path class="st1" d="M873.15,1441.88c-4.96,0-9.93,0.06-14.89-0.02c-2.54-0.04-4.27-1.44-5.2-3.78c-0.7-1.77-1.71-3.53-1.89-5.37
			c-0.92-9.08-2.57-18.24-2.14-27.28c0.53-11.34,1.26-22.74,3.17-34.04c1.52-9,3.1-17.96,5.06-26.89
			c5.9-26.91,14.6-52.85,26.93-77.48c6.14-12.27,12.85-24.27,19.68-36.17c3.02-5.26,7.12-9.9,10.51-14.97
			c1.71-2.56,3.84-3.7,6.74-3.12c2.96,0.6,5.91,1.35,8.77,2.31c2.59,0.87,2.97,2.12,1.78,4.22c-2.63,4.64-5.53,9.16-7.8,13.97
			c-9.59,20.37-17.61,41.35-22.93,63.27c-2.6,10.71-4.94,21.49-7.26,32.26c-2.32,10.79-3.37,21.77-4.84,32.69
			c-1.84,13.71-1.63,27.37-1.85,41.07c-0.19,11.88,1.43,23.52,4.33,35.01c0.75,2.96-0.31,4.46-3.27,4.52
			c-4.96,0.1-9.93,0.03-14.89,0.03C873.15,1442.03,873.15,1441.96,873.15,1441.88z"/>
		<path class="st1" d="M1041.26,768.88c0,4.32,0.02,8.9,0,13.48c-0.05,7.77,0.33,8.2-8.31,8.03c-10.35-0.21-19.28,3.7-27.58,9.53
			c-3.4,2.39-3.75,2.38-6.66-0.75c-13.5-14.5-26.98-29.03-38.6-45.12c-2.2-3.05-3.76-6.62-5.23-10.12c-1.2-2.84-1.26-5.91-0.2-8.92
			c0.32-0.91,1.95-1.51,2.86-0.95c0.32,0.2,0.64,0.42,0.93,0.65c1.63,1.3,2.77,4.31,5.47,2.44c1.8-1.24,0.88-3.43,0.46-5.29
			c-1.09-4.81-2.15-9.63-3.1-14.47c-0.29-1.48-0.28-3.03-0.31-4.55c-0.1-3.87,1.83-6.56,5.22-8.1c0.74-0.34,2.65,0.11,2.86,0.66
			c1.39,3.53,2.36,7.22,3.71,10.76c0.35,0.93,1.49,2.1,2.36,2.19c1.84,0.18,2.28-1.63,2.59-3.01c0.32-1.43,0.37-2.95,0.27-4.42
			c-0.25-3.78-0.81-7.55-0.96-11.33c-0.17-4.43,2.46-6.98,6.36-8.5c1.29-0.5,3.47,0.1,3.97,1.32c0.99,2.46,1.87,4.97,2.73,7.48
			c0.48,1.4,0.66,2.91,2.55,3.3c1.55,0.32,2.3-0.47,3.09-3.93c0.59-2.59,1.02-5.23,1.61-7.82c0.25-1.09,0.66-2.18,1.16-3.18
			c1.55-3.1,6.8-3.68,8.74-0.83c1.7,2.5,3.24,5.17,4.44,7.95c4.16,9.59,9.85,18.05,17.77,24.91c5.77,5,8.25,11.24,9.48,18.82
			C1040.53,748.93,1040.92,758.75,1041.26,768.88z"/>
		<path class="st1" d="M792.65,725.86c-0.24,19.69,4.08,38.49,10.94,56.81c2.27,6.06,4.58,12.1,6.82,18.17
			c0.05,0.13-0.58,0.75-0.76,0.69c-6.15-1.91-12.27-3.94-18.44-5.82c-4.36-1.33-8.8-2.43-13.18-3.71c-2.49-0.73-3.28-2.83-2.19-5.42
			c2.51-5.96,5.04-11.92,7.49-17.9c0.96-2.34,0.19-4.49-1.16-6.45c-2.28-3.32-5.38-5.52-9.42-5.76c-3.79-0.22-7.71-0.43-11.41,0.26
			c-10.09,1.89-20.09,4.25-29.57,8.39c-3.14,1.37-6.41,2.43-9.55,3.79c-4.73,2.04-9.18,1.24-12.85-1.95
			c-5.46-4.74-10.54-9.93-15.7-15c-0.31-0.3-0.23-1.58,0.11-1.86c2.34-1.95,4.72-3.87,7.25-5.58c14.88-10.04,30.22-19.19,47.1-25.58
			c12.52-4.74,25.16-8.72,38.73-8.73c1.5,0,2.99-0.61,4.5-0.67c0.4-0.02,1.21,0.93,1.22,1.45
			C792.69,715.94,792.65,720.9,792.65,725.86z"/>
		<path class="st1" d="M910.26,1195.29c0,1.91-0.02,3.82,0,5.73c0.04,3.57-1.23,6.57-3.18,9.59c-7.65,11.87-15.33,23.73-22.44,35.92
			c-5.38,9.22-9.88,18.93-14.85,28.39c-0.29,0.56-1.22,0.82-1.89,1.11c-0.12,0.05-0.52-0.45-0.72-0.74
			c-0.21-0.31-0.35-0.67-0.51-1.02c-0.33-0.69-0.73-1.36-0.96-2.08c-3.71-11.67-9.37-22.53-14.07-33.79
			c-4.73-11.31-11.05-21.78-17.49-32.17c-0.59-0.95-1.17-1.98-1.43-3.05c-0.14-0.59,0.22-1.59,0.69-1.98
			c0.85-0.7,1.91-1.32,2.97-1.55c11.15-2.49,22.37-4.67,33.45-7.41c5.9-1.46,11.64-3.64,17.31-5.85c5-1.94,9.73-4.51,13.45-8.53
			c5.31-5.75,5.77-4.02,7.91,1.62C910.5,1184.67,910.27,1189.97,910.26,1195.29z"/>
		<path class="st1" d="M1193.04,777.57c5.84,0.62,12.66,1.28,19.45,2.14c0.96,0.12,2.13,0.98,2.64,1.84
			c3.6,6.01,5.33,11.96,3.44,19.44c-5.47,21.66-13.75,41.97-26.09,60.58c-5.92,8.92-12.69,17.18-20.77,24.29
			c-0.51,0.45-1.43,0.78-2.07,0.66c-1.53-0.27-1.19-1.48-0.91-2.54c2.56-9.59,3.59-19.46,4.79-29.24c0.88-7.14,0.94-14.57,0.02-21.7
			c-0.83-6.45-1.16-12.89-1.68-19.33c-0.27-3.4-0.74-6.81-1.5-10.13c-0.75-3.26-0.04-5.97,1.8-8.62c3.05-4.39,6.15-8.74,8.93-13.3
			c1.8-2.96,4.12-4.33,7.51-4.11C1189.76,777.63,1190.91,777.57,1193.04,777.57z"/>
		<path class="st1" d="M1277.9,1430.79c-0.38,0-0.76-0.01-1.14,0c-15,0.65-29.57-1.25-43.59-6.93c-3.83-1.56-7.99-2.32-11.99-3.49
			c-0.2-0.06-0.36-0.56-0.39-0.87c-0.03-0.35,0.02-0.77,0.2-1.05c0.19-0.3,0.54-0.56,0.87-0.72c17.95-8.31,35.88-16.65,53.87-24.88
			c8.51-3.89,7.16-4.7,16.69,0.88c4.59,2.69,9.19,5.38,13.89,7.87c7.81,4.14,15.96,6.91,25.02,6.95c4.12,0.02,8.27,1.13,12.32,2.09
			c2.84,0.67,4.41,2.87,4.74,5.79c0.47,4.12-0.9,7.63-3.75,8.87c-3.48,1.52-7.01,2.92-10.95,2.87c-4.95-0.06-9.91,0.04-14.86,0.17
			c-6.07,0.15-12.07,0.47-18.15,1.48c-7.46,1.24-15.19,0.86-22.8,1.18C1277.9,1430.92,1277.9,1430.85,1277.9,1430.79z"/>
		<path class="st1" d="M800.67,721.11c0-3.43-0.32-6.9,0.08-10.29c0.55-4.74,2.8-8.6,7.2-11c3.68-2.01,7.27-4.19,10.92-6.26
			c4.32-2.45,6.52-1.24,6.23,3.74c-0.65,11.12,1.14,22.11,2.67,32.99c2.44,17.32,6.48,34.41,13.26,50.66
			c4.11,9.84,8.77,19.45,13.14,29.18c0.29,0.64,0.48,1.93,0.2,2.1c-0.88,0.55-2.12,1.2-3.01,0.97c-8.48-2.14-16.9-4.51-25.38-6.67
			c-2.44-0.62-3.97-1.92-5.04-4.15c-6.96-14.47-12.6-29.41-15.95-45.12C802.44,745.36,800.11,733.39,800.67,721.11z"/>
		<path class="st1" d="M1041.32,811.39c-0.8,6.8-1.9,13.58-2.3,20.4c-0.42,7.12-1.17,7.18-7.42,6.34
			c-7.3-0.99-14.34,0.05-21.24,2.36c-2.17,0.72-4.24,1.71-6.39,2.51c-1.71,0.64-3.04-0.32-2.85-1.95c0.4-3.4,0.78-6.81,1.16-10.21
			c0.68-6.05,1.2-12.12,2.12-18.14c0.27-1.74,1.3-3.74,2.63-4.87c8.66-7.36,18.79-11.4,30.11-12.35c2.32-0.2,3.75,1.1,3.79,3.25
			c0.06,4.2,0.02,8.4,0.02,12.6C1041.08,811.36,1041.2,811.37,1041.32,811.39z"/>
		<path class="st1" d="M981.07,1023.67c-0.64,1.09-0.86,2.03-1.41,2.29c-2.73,1.31-5.64,2.24-8.3,3.68
			c-7.34,3.96-14.57,8.13-21.89,12.14c-0.47,0.26-1.55,0.14-1.85-0.22c-0.4-0.49-0.44-1.38-0.41-2.09c0.04-0.74,0.29-1.49,0.54-2.2
			c7.68-22.2,14.35-44.7,20.29-67.42c0.1-0.39,0.7-0.64,1.07-0.96c0.16,0.33,0.43,0.66,0.47,1.01c0.82,6.76,1.67,13.52,2.41,20.29
			c1.09,9.87,4.46,19.15,7.37,28.55C979.92,1020.5,980.58,1022.24,981.07,1023.67z"/>
		<path class="st1" d="M609.52,1253.85c-9.17,0.42-18.29,0.01-27.2-2.45c-1.4-0.39-1.6-1.09-0.65-2.29
			c5.45-6.86,10.87-13.74,16.32-20.6c1.38-1.73,3.15-2.06,5.02-0.75c9.11,6.43,16.99,14.1,23.28,23.34c1.01,1.49,0.22,2.7-1.89,2.73
			C619.44,1253.9,614.48,1253.85,609.52,1253.85z"/>
		<path class="st1" d="M943.52,1202.6c-0.66,1-1.35,2.34-2.33,3.44c-1,1.12-2.17,2.16-3.46,2.93c-1.69,1.01-2.78-0.69-4.03-1.35
			c-4.42-2.36-9.18-3.56-14.08-4.38c-0.49-0.08-0.93-0.92-1.24-1.49c-0.14-0.26,0.08-0.73,0.17-1.1
			c2.48-10.97-0.01-21.09-5.25-30.75c-0.17-0.31-0.14-0.73-0.21-1.1c0.62-0.1,1.39-0.49,1.85-0.26
			c11.54,5.82,20.95,13.82,26.07,26.03C942.04,1196.99,942.61,1199.62,943.52,1202.6z"/>
		<path class="st1" d="M1232.9,1044.73c-0.28,0.63-0.44,1.67-0.87,1.81c-3.6,1.14-7.3,1.96-10.88,3.17
			c-9.87,3.35-18.59,8.56-25.72,16.27c-2.32,2.51-4.55,5.1-6.93,7.55c-0.83,0.85-2.05,1-2.91-0.06c-1.43-1.76-2.79-3.6-4.11-5.45
			c-1.9-2.67-5.37-4.18-5.9-7.87c2.96-1.68,5.9-3.43,8.9-5.04c10.11-5.42,21-8.69,32.1-11.22c4.8-1.1,9.76-1.55,14.69-0.48
			C1231.88,1043.54,1232.36,1044.27,1232.9,1044.73z"/>
		<path class="st1" d="M1044.17,1132.06c-6.48,3.17-11.93,5.85-17.39,8.49c-0.22,0.11-0.69-0.03-0.89-0.22
			c-0.23-0.22-0.36-0.61-0.39-0.94c-0.03-0.36,0.05-0.77,0.2-1.11c4.53-10.43,9.08-20.85,13.63-31.27c0.67-1.52,2.48-1.99,3.7-0.93
			c6.3,5.47,12.64,10.9,18.85,16.48c1.74,1.56,1.91,2.07-0.7,3.07C1055.17,1127.95,1049.13,1130.19,1044.17,1132.06z"/>
		<path class="st1" d="M769.7,763.87c0.62,0.1,1,0.18,1.37,0.22c1.86,0.23,3.59,2.44,3.08,4.08c-0.56,1.81-1.12,3.65-1.91,5.37
			c-7.68,16.64-3.28,16.05-21.42,8.57c-5.28-2.18-10.64-4.14-15.96-6.24c-0.29-0.12-0.69-0.55-0.66-0.78
			c0.09-0.66,0.2-1.65,0.63-1.88c6.82-3.51,14.14-5.68,21.58-7.33C760.86,764.91,765.43,764.5,769.7,763.87z"/>
		<path class="st1" d="M941.18,1062.39c-0.23-0.3-0.55-0.57-0.68-0.9c-0.13-0.34-0.12-0.75-0.1-1.12c0.18-2.92,1.84-4.93,4.16-6.4
			c3.83-2.43,7.67-4.87,11.63-7.08c8.59-4.8,17.23-9.49,25.92-14.09c0.75-0.4,2.58-0.18,2.95,0.39c0.96,1.48,1.43,3.29,2,5
			c0.07,0.21-0.32,0.68-0.59,0.89c-0.59,0.45-1.21,0.93-1.89,1.18c-15.01,5.51-28.46,14.04-42.36,21.7
			C941.89,1062.13,941.53,1062.25,941.18,1062.39z"/>
		<path class="st1" d="M1147.14,1083.76c-0.68-0.15-1.08-0.14-1.35-0.33c-0.16-0.11-0.23-0.56-0.14-0.78
			c0.13-0.34,0.38-0.68,0.66-0.91c6.85-5.38,13.7-10.75,20.56-16.11c1.62-1.27,2.73-0.24,3.71,0.94c1.07,1.3,1.4,2.97,0,4
			C1163.26,1076,1155.17,1080.11,1147.14,1083.76z"/>
	</g>
</g>
</svg>
