<?xml version="1.0" encoding="utf-8"?>
<!-- Generator: Adobe Illustrator 24.3.0, SVG Export Plug-In . SVG Version: 6.00 Build 0)  -->
<svg version="1.1" id="Layer_1" xmlns="http://www.w3.org/2000/svg" xmlns:xlink="http://www.w3.org/1999/xlink" x="0px" y="0px"
	 viewBox="0 0 2000 2000" style="enable-background:new 0 0 2000 2000;" xml:space="preserve">
<style type="text/css">
	.st0{fill:#312D81;}
	.st1{fill:#EFEFF0;}
	.st2{fill:#2C2C2C;}
</style>
<g>
	<g>
		<path class="st1" d="M958.99,875.39l-6.88,7.37c-4.48-4.48-9.86-7.89-16.14-10.24c-6.28-2.35-12.64-3.52-19.09-3.52
			c-14.96,0-26.73,4.75-35.31,14.25c-8.58,9.5-12.81,21.08-12.7,34.73c0,13.33,4.18,24.55,12.53,33.67
			c8.36,9.12,20.18,13.68,35.47,13.68c12.67,0,23.65-4.15,32.93-12.45v-29h-37.52v-10.65h48.5v44.4
			c-12.23,12.56-26.87,18.84-43.91,18.84c-19,0-33.67-5.6-43.99-16.79c-10.32-11.19-15.48-25.04-15.48-41.53
			c-0.11-17.69,5.3-32.11,16.22-43.25c10.92-11.14,25.34-16.71,43.25-16.71C933.38,858.19,947.41,863.92,958.99,875.39z"/>
		<path class="st1" d="M1041.07,931.75l39.16,43.09h-14.91l-38.01-42.27h-29.65v42.27h-11.47V860.16h51.45
			c12.12,0,21.46,3.47,28.02,10.4c6.55,6.94,9.88,15.59,9.99,25.97c0.11,9.61-2.76,17.75-8.6,24.41
			C1061.2,927.6,1052.54,931.21,1041.07,931.75z M1037.63,870.97h-39.98v50.79h39.32c8.85,0,15.59-2.32,20.23-6.96
			c4.64-4.64,6.96-10.73,6.96-18.27s-2.29-13.68-6.88-18.43S1046.15,870.97,1037.63,870.97z"/>
		<path class="st1" d="M1191.14,974.84l-11.8-26.54h-66.52l-11.8,26.54h-12.12l51.45-114.69h11.47l51.45,114.69H1191.14z
			 M1146.09,872.61l-28.67,65.21h57.34L1146.09,872.61z"/>
		<path class="st1" d="M1273.06,936.67h-39.81v38.17h-11.47V860.16h51.28c5.46,0,10.51,0.88,15.15,2.62
			c4.64,1.75,8.46,4.1,11.47,7.04c3,2.95,5.54,6.34,7.62,10.16c2.07,3.82,3.33,7.84,3.77,12.04c0.44,4.21,0.44,8.41,0,12.62
			c-0.44,4.21-1.69,8.25-3.77,12.12c-2.08,3.88-4.62,7.29-7.62,10.24c-3.01,2.95-6.83,5.3-11.47,7.05
			C1283.57,935.79,1278.52,936.67,1273.06,936.67z M1233.25,870.97v54.89h39.81c4.91,0,9.31-1.01,13.19-3.03
			c3.88-2.02,6.8-4.64,8.77-7.86c1.97-3.22,3.41-6.77,4.34-10.65c0.93-3.88,0.93-7.78,0-11.71c-0.93-3.93-2.38-7.51-4.34-10.73
			c-1.97-3.22-4.89-5.84-8.77-7.86c-3.88-2.02-8.27-3.03-13.19-3.03H1233.25z"/>
		<path class="st1" d="M1383.49,936.67h-39.81v38.17h-11.47V860.16h51.28c5.46,0,10.51,0.88,15.16,2.62
			c4.64,1.75,8.46,4.1,11.47,7.04c3,2.95,5.54,6.34,7.62,10.16c2.07,3.82,3.33,7.84,3.77,12.04c0.44,4.21,0.44,8.41,0,12.62
			c-0.44,4.21-1.69,8.25-3.77,12.12c-2.08,3.88-4.62,7.29-7.62,10.24c-3,2.95-6.83,5.3-11.47,7.05
			C1394,935.79,1388.95,936.67,1383.49,936.67z M1343.67,870.97v54.89h39.81c4.92,0,9.31-1.01,13.19-3.03
			c3.88-2.02,6.8-4.64,8.77-7.86c1.96-3.22,3.41-6.77,4.34-10.65c0.93-3.88,0.93-7.78,0-11.71c-0.93-3.93-2.38-7.51-4.34-10.73
			c-1.97-3.22-4.89-5.84-8.77-7.86c-3.88-2.02-8.27-3.03-13.19-3.03H1343.67z"/>
		<path class="st1" d="M1442.63,860.16h11.47v103.87h63.73v10.81h-75.2V860.16z"/>
		<path class="st1" d="M1547.16,974.84h-11.47V860.16h11.47V974.84z"/>
		<path class="st1" d="M1585.33,860.16l74.22,93.06l-0.66-38.01v-55.05h11.47v114.69h-6.88l-74.22-92.24l0.33,33.91v58.33h-11.47
			V860.16H1585.33z"/>
		<path class="st1" d="M1795.7,875.39l-6.88,7.37c-4.48-4.48-9.86-7.89-16.14-10.24c-6.28-2.35-12.64-3.52-19.09-3.52
			c-14.96,0-26.73,4.75-35.31,14.25c-8.58,9.5-12.81,21.08-12.7,34.73c0,13.33,4.18,24.55,12.53,33.67
			c8.36,9.12,20.18,13.68,35.47,13.68c12.67,0,23.65-4.15,32.93-12.45v-29H1749v-10.65h48.5v44.4
			c-12.23,12.56-26.87,18.84-43.91,18.84c-19,0-33.67-5.6-43.99-16.79c-10.32-11.19-15.48-25.04-15.48-41.53
			c-0.11-17.69,5.3-32.11,16.22-43.25c10.92-11.14,25.34-16.71,43.25-16.71C1770.08,858.19,1784.12,863.92,1795.7,875.39z"/>
		<path class="st1" d="M891.82,1140.5v-103.87h-40.47v-10.81h92.4v10.81h-40.47v103.87H891.82z"/>
		<path class="st1" d="M1016.33,1097.41l39.16,43.09h-14.91l-38.01-42.27h-29.66v42.27h-11.47v-114.69h51.45
			c12.12,0,21.46,3.47,28.02,10.4c6.55,6.94,9.88,15.59,9.99,25.97c0.11,9.61-2.76,17.75-8.6,24.41
			C1036.46,1093.26,1027.8,1096.86,1016.33,1097.41z M1012.89,1036.63h-39.98v50.79h39.32c8.85,0,15.59-2.32,20.23-6.96
			c4.64-4.64,6.96-10.73,6.96-18.27s-2.29-13.68-6.88-18.43C1027.96,1039,1021.41,1036.63,1012.89,1036.63z"/>
		<path class="st1" d="M1166.41,1140.5l-11.8-26.54h-66.52l-11.8,26.54h-12.12l51.45-114.69h11.47l51.45,114.69H1166.41z
			 M1121.35,1038.26l-28.67,65.21h57.34L1121.35,1038.26z"/>
		<path class="st1" d="M1279.29,1117.56l7.37,7.37c-11.58,11.58-25.5,17.37-41.78,17.37c-19.01,0-33.67-5.54-43.99-16.63
			c-10.32-11.08-15.54-25.04-15.65-41.86c-0.11-10.7,1.99-20.48,6.31-29.33c4.31-8.85,11.08-16.11,20.32-21.79
			c9.23-5.68,20.23-8.52,33.01-8.52c7.97,0,15.54,1.45,22.69,4.34c7.15,2.9,13.13,7.18,17.94,12.86l-7.04,7.04
			c-9.29-9.17-20.48-13.76-33.59-13.76c-15.18,0-27.01,4.78-35.47,14.34c-8.47,9.56-12.7,21.11-12.7,34.65
			c0,14.09,4.18,25.62,12.53,34.57c8.36,8.96,20.23,13.43,35.63,13.43C1258.42,1131.65,1269.89,1126.96,1279.29,1117.56z"/>
		<path class="st1" d="M1386.11,1025.81v0.82l-55.87,54.23l60.78,58.82v0.82h-14.25l-57.51-55.54v55.54h-11.47v-114.69h11.47v51.61
			l53.25-51.61H1386.11z"/>
		<path class="st1" d="M1488.51,1129.69v10.81h-82.25v-114.69h80.77v10.81h-69.3v41.12h66.19v10.65h-66.19v41.29H1488.51z"/>
		<path class="st1" d="M1567.64,1097.41l39.16,43.09h-14.91l-38.01-42.27h-29.66v42.27h-11.47v-114.69h51.45
			c12.12,0,21.46,3.47,28.02,10.4c6.55,6.94,9.88,15.59,9.99,25.97c0.11,9.61-2.76,17.75-8.6,24.41
			C1587.76,1093.26,1579.11,1096.86,1567.64,1097.41z M1564.2,1036.63h-39.98v50.79h39.32c8.85,0,15.59-2.32,20.23-6.96
			c4.64-4.64,6.96-10.73,6.96-18.27s-2.29-13.68-6.88-18.43C1579.27,1039,1572.72,1036.63,1564.2,1036.63z"/>
	</g>
	<g>
		<ellipse class="st0" cx="477.06" cy="1000" rx="284.06" ry="282.29"/>
		<g>
			<path class="st1" d="M479.13,1166.07c-3.61,0-7.23,0.16-10.83-0.04c-4.3-0.23-8.61-0.66-12.83-1.63
				c-2.41-0.55-4.64-1.52-6.84-2.61c-0.86-0.43-1.28-1.09-1.42-2c-0.61-3.97-1.16-7.93-1.07-11.96c0.06-2.87,0.04-5.74,0.07-8.61
				c0.05-4.88,0.85-9.67,1.47-14.5c0.79-6.13,2.23-12.09,3.81-18.03c2.11-7.9,4.83-15.6,8.56-22.92c1.11-2.17,2.27-4.33,3.59-6.37
				c1.73-2.68,3.93-5.09,6.73-6.6c5.66-3.04,10.38-7.25,15.2-11.35c6.56-5.58,14.14-9.35,21.97-12.71c0.66-0.28,1.37-0.43,2.05-0.68
				c1.91-0.7,3.49-0.44,5.18,0.92c4.6,3.69,9.38,7.15,14.09,10.71c5.75,4.35,11.85,8.16,18.11,11.74c1.62,0.93,3.26,1.82,4.9,2.72
				c0.1,0.06,0.28,0.03,0.4-0.01c0.35-0.13,0.39-0.38,0.1-0.66c-0.52-0.49-1.03-1.01-1.6-1.44c-7.03-5.26-14.1-10.46-21.09-15.77
				c-6.07-4.61-12.19-9.19-18.03-14.08c-5.4-4.53-10.64-9.26-15.49-14.4c-7.61-8.06-13.42-17.2-16.72-27.81
				c-1.15-3.7-1.94-7.5-1.99-11.38c-0.08-6.6-0.09-13.2,0.07-19.8c0.07-2.99,0.54-5.98,0.96-8.95c0.44-3.11,1.13-6.19,1.55-9.3
				c0.28-2.11,1.2-3.78,2.69-5.24c1.46-1.42,3.05-2.63,4.91-3.48c3.17-1.45,6.47-2.39,9.97-2.56c1.25-0.06,2.32,0.1,2.49,1.68
				c0.05,0.45,0.35,0.46,0.52,0.05c1.09-2.68,1.42-5.54,1.9-8.34c0.69-4.08,1.36-8.2,1.6-12.32c0.28-4.71,0.35-9.42-0.38-14.15
				c-0.5-3.26-1.08-6.47-1.87-9.67c-0.57-2.33-1.62-4.27-3.39-5.85c-0.54-0.48-1.05-0.99-1.58-1.47c-1.84-1.68-3.29-3.57-4.01-6.01
				c-0.53-1.81-1.63-3.34-3-4.66c-1.94-1.86-3.98-2.02-6.23-0.46c-0.35,0.25-0.61,0.64-0.98,0.84c-0.34,0.18-0.83,0.37-1.14,0.25
				c-3.25-1.18-5.23,0.44-6.82,2.97c-0.08,0.12-0.12,0.26-0.18,0.39c-0.39,0.85-0.99,1.38-1.99,1.37c-1.24-0.01-2.25,0.5-3.03,1.42
				c-0.94,1.12-1.65,2.39-1.73,3.87c-0.07,1.29,0.01,2.58,0.07,3.87c0.04,0.91-0.12,1.73-0.86,2.31c-2.48,1.95-2.14,4.56-1.54,7.1
				c0.32,1.36,1.04,2.67,1.79,3.88c2.74,4.41,6.07,8.37,9.62,12.14c2.07,2.2,4.22,4.33,6.3,6.51c0.13,0.14,0.11,0.6-0.02,0.75
				c-0.14,0.16-0.55,0.25-0.75,0.16c-0.52-0.23-0.99-0.57-1.48-0.88c-10.44-6.69-20.51-13.87-29.93-21.94
				c-0.75-0.64-1.66-1.11-2.51-1.64c-0.06-0.04-0.25,0.04-0.33,0.12c-0.08,0.08-0.18,0.27-0.14,0.34c0.27,0.49,0.5,1.04,0.89,1.43
				c2.94,2.96,5.96,5.83,9.08,8.61c5.62,5,11.65,9.39,18.02,13.35c1.95,1.22,3.99,2.31,6.06,3.32c1.1,0.54,1.47,1.28,1.35,2.4
				c-0.18,1.7-0.37,3.41-0.56,5.11c-0.03,0.28-0.18,0.57-0.15,0.84c0.34,3.12-0.82,5.51-3.28,7.46c-1.26,1-1.82,2.54-2.12,4.14
				c-0.36,1.97-0.57,4-1.2,5.88c-0.72,2.13-0.04,4.41-0.99,6.46c-0.75-2-1.36-4.07-2.27-5.99c-3.37-7.1-8.71-12.37-15.44-16.39
				c-5.98-3.57-12.44-6.02-19.08-7.97c-1.99-0.59-3.18-1.62-4.14-3.37c-4.19-7.59-7.27-15.6-9.29-23.99
				c-1.65-6.84-2.39-13.81-2.17-20.87c0.1-3.36,1.61-6.07,3.45-8.64c0.96-1.35,2.4-1.73,4.22-1.12c3.99,1.34,4.01,1.22,7.07-1.72
				c1.13-1.09,2.3-2.17,3.56-3.11c0.81-0.6,1.79-0.9,2.86-0.38c0.51,0.25,1.16,0.22,1.65,0.49c2.11,1.17,4.16,0.83,6.22-0.13
				c0.91-0.43,1.86-0.79,2.74-1.28c5.19-2.88,10.72-4.84,16.37-6.61c10.04-3.14,20.3-5.38,30.49-7.92c3.07-0.77,6.2-1.18,9.34-1.61
				c3.6-0.5,7.18-0.59,10.78-0.69c4.64-0.12,9.16,0.78,13.73,1.36c3.28,0.41,6.62,0.41,9.94,0.5c2.31,0.06,4.62-0.03,6.93-0.11
				c2.9-0.1,5.36,0.95,7.51,2.78c0.62,0.53,1.4,0.99,1.49,1.94c-0.66,0.25-1.35,0.45-1.98,0.77c-0.5,0.26-0.94,0.65-1.38,1.01
				c-0.42,0.34-0.56,1.34-0.19,1.52c0.33,0.16,0.84,0.26,1.15,0.12c1.44-0.68,2.87-1.26,4.52-1.34c3.46-0.17,3.53-0.14,3.5,3.49
				c-0.04,5.31-0.8,10.54-1.6,15.78c-1.89,12.36-6.33,23.75-12.76,34.43c-0.67,1.11-1.26,2.26-1.97,3.34
				c-0.42,0.64-1.01,1.18-1.53,1.76c-0.12-0.7-0.23-1.4-0.35-2.1c-0.25-1.41-0.53-2.81-0.77-4.21c-0.36-2.07,0-3.99,1.19-5.74
				c0.4-0.59,0.7-1.25,1.08-1.86c3.81-6.01,6.38-12.5,7.79-19.45c0.11-0.56,0.27-1.13,0.28-1.69c0.04-4.02,0.14-8.03,0.01-12.05
				c-0.05-1.38-0.7-2.74-1.1-4.1c-0.02-0.07-0.24-0.17-0.28-0.14c-0.11,0.08-0.23,0.22-0.23,0.34c-0.06,1-0.16,2-0.14,3
				c0.27,9.49-2.12,18.43-5.76,27.09c-0.18,0.43-0.6,0.76-0.9,1.14c-0.1-0.41-0.23-0.81-0.3-1.23c-0.64-3.67-1.36-7.32-2.9-10.75
				c-0.4-0.9-1.02-1.7-1.56-2.53c-0.04-0.07-0.26-0.1-0.33-0.06c-0.11,0.07-0.24,0.24-0.22,0.34c0.33,1.68,0.74,3.34,1.03,5.03
				c0.71,4.09,1.44,8.18,1.24,12.35c-0.02,0.42-0.14,0.84-0.25,1.25c-0.02,0.09-0.19,0.17-0.3,0.19c-0.13,0.02-0.31,0.02-0.41-0.05
				c-0.11-0.07-0.21-0.22-0.24-0.35c-0.82-3.8-2.24-7.39-3.77-10.95c-0.34-0.79-0.67-1.59-1.07-2.35c-1.05-1.95-2.07-3.06-2.28-2.6
				c-0.56,1.22,0.3,2.22,0.63,3.25c2.47,7.78,4.49,15.69,5.83,23.73c0.84,5.07,1.52,10.18,2.19,15.28c0.7,5.3,0.57,10.57,0.67,15.87
				c0.05,2.62-0.77,5.09-1.1,7.64c-0.07,0.51-0.94,0.86-1.39,0.6c-0.5-0.28-1-0.57-1.46-0.91c-2.48-1.81-5.25-2.95-8.22-3.69
				c-0.69-0.17-1.36-0.55-2.03,0.01c0.45,0.33,0.86,0.74,1.36,0.98c2.89,1.36,5.47,3.16,7.97,5.12c2.71,2.13,4.37,4.9,5.51,8.04
				c0.04,0.11-0.01,0.37-0.05,0.38c-0.23,0.05-0.52,0.14-0.71,0.05c-2.32-1.16-4.56-2.51-6.95-3.5c-5.11-2.12-10.44-3.21-16.02-2.76
				c-0.24,0.02-0.47,0.24-0.7,0.37c0.27,0.31,0.48,0.71,0.82,0.91c0.35,0.21,0.82,0.26,1.24,0.31c6.42,0.65,12.33,2.77,17.91,5.92
				c3.84,2.17,7.05,4.97,9.33,8.76c1.26,2.09,2.65,4.12,3.7,6.31c3.27,6.75,7.45,12.93,11.62,19.13c1.68,2.5,3.41,4.98,5.04,7.52
				c0.93,1.45,1.75,2.97,2.52,4.5c0.6,1.19,0.2,1.61-1.25,1.44c-1.87-0.22-3.71-0.25-5.58,0.23c-1.53,0.39-3.15,0.39-4.68,0.77
				c-8.24,2.07-15.64,5.79-22.1,11.31c-1.86,1.59-3.71,3.19-5.5,4.84c-0.73,0.67-1.18,1.96-1.97,2.17
				c-1.36,0.37-2.33-0.99-3.25-1.79c-2.07-1.78-4.07-3.68-5.85-5.74c-5.18-6.01-9.51-12.62-13.19-19.63
				c-3.2-6.1-6.19-12.31-9.29-18.47c-0.58-1.15-1.21-2.28-1.83-3.4c-0.05-0.09-0.21-0.11-0.31-0.17c-0.11,0.25-0.36,0.55-0.3,0.75
				c0.45,1.5,0.95,2.99,1.45,4.48c1.78,5.3,3.8,10.52,6.2,15.57c3.7,7.81,8.26,15.08,13.9,21.7c3.02,3.54,6.24,6.71,10.17,9.24
				c1.99,1.29,3.91,1.53,6.15,0.91c3.38-0.93,6.36-2.68,9.41-4.29c1.26-0.67,2.43-1.78,3.76-2.01c1.53-0.27,2.14,1.7,3.45,2.28
				c1.62,0.72,2.13,2.23,2.6,3.76c0.58,1.92,1.25,3.78,2.4,5.49c0.98,1.45,2.14,2.7,3.45,3.83c0.33,0.28,0.68,0.53,1.05,0.76
				c4.49,2.82,7.29,6.83,8.6,11.92c0.35,1.38,0.83,2.74,1.37,4.07c0.32,0.78,0.77,1.57,1.34,2.19c1.8,1.93,4.43,2.03,5.98-0.86
				c0.13-0.25,0.12-0.57,0.24-0.82c0.09-0.2,0.27-0.36,0.42-0.54c0.07,0.12,0.17,0.24,0.21,0.37c0.35,1.09,0.61,2.22,1.04,3.27
				c0.43,1.05,0.95,2.1,1.59,3.03c0.89,1.28,2.59,1.84,3.81,1.31c1.39-0.61,2.44-1.56,2.5-3.21c0.04-1.15,0-2.29,0-3.44
				c0-0.13,0.1-0.26,0.16-0.39c0.17,0.09,0.44,0.14,0.51,0.28c0.36,0.78,0.65,1.59,1,2.38c0.23,0.52,0.47,1.06,0.82,1.51
				c0.92,1.19,2.15,1.99,3.69,1.9c1.4-0.08,3.11-2.04,3.25-3.64c0.11-1.28,0.02-2.58,0.08-3.87c0.01-0.15,0.43-0.44,0.55-0.39
				c0.81,0.3,1.59,0.68,2.38,1.01c0.71,0.29,1.41,0.2,2.08-0.16c2.31-1.22,2.98-2.73,2.13-5.3c-0.72-2.17-1.65-4.27-2.39-6.44
				c-0.24-0.71-1.31-1.43-0.5-2.16c0.33-0.3,1.37,0.07,2.03,0.29c1.52,0.5,2.89,0.16,4.12-0.69c1.46-1.01,2-2.57,0.71-4.01
				c-2.4-2.68-4.76-5.39-7.13-8.09c-0.08-0.09-0.09-0.24-0.14-0.36c0.26-0.05,0.57-0.22,0.76-0.14c0.66,0.29,1.3,0.63,1.9,1.02
				c7.29,4.73,13.97,10.19,19.66,16.75c4.44,5.13,8.12,10.79,11.11,16.87c0.94,1.92,1.59,3.99,2.22,6.04
				c0.29,0.94,0.25,1.98,0.28,2.98c0.03,0.91-0.39,1.69-1.09,2.25c-0.67,0.54-1.41,0.98-2.13,1.46c-2.51,1.68-5.03,3.35-7.53,5.06
				c-1.37,0.94-2.13,2.18-2.35,3.9c-0.35,2.69-0.97,5.34-1.47,8c-1.11,5.93-3,11.61-5.2,17.24c-3.82,9.78-10.35,17.1-19.61,22.06
				c-2.41,1.29-4.88,2.48-7.37,3.62c-9.43,4.31-18.84,8.69-28.34,12.83c-6.72,2.93-13.49,5.81-20.71,7.38
				c-2.81,0.61-5.62,1.14-8.47,1.56c-3.01,0.44-6.03,0.48-9.03,0.84c-3.42,0.42-6.79,1.22-10.18,1.88
				c-4.8,0.94-9.61,1.78-14.47,2.35c-3.28,0.38-6.54,0.93-9.82,1.36c-1.14,0.15-2.3,0.24-3.45,0.25c-3.61,0.03-7.22,0.01-10.84,0.01
				C479.13,1166.08,479.13,1166.08,479.13,1166.07z M588.7,1101.69c0.92-0.07,1.5-0.08,2.07-0.17c0.22-0.04,0.4-0.26,0.6-0.39
				c-0.11-0.09-0.22-0.22-0.35-0.25c-5.23-1.06-10.23-2.84-15.29-4.48c-5.38-1.74-10.38-4.28-15.24-7.06
				c-3.37-1.92-6.45-4.3-9.3-6.97c-4.93-4.64-9.57-9.52-13.51-15.04c-0.41-0.57-0.99-1.01-1.51-1.5c-0.06-0.06-0.27-0.06-0.34-0.01
				c-0.1,0.08-0.22,0.27-0.18,0.35c0.83,1.66,1.6,3.35,2.54,4.94c6.02,10.11,14.2,17.96,24.84,23.2c6.49,3.19,13.37,5.2,20.48,6.5
				C585.34,1101.14,587.18,1101.43,588.7,1101.69z M475.78,1119.51c-0.03-0.39-0.05-0.24,0-0.11c0.08,0.24,0.21,0.46,0.32,0.69
				c0.1-0.1,0.25-0.18,0.3-0.3c0.32-0.79,0.77-1.56,0.91-2.39c0.61-3.67,1.57-7.25,2.53-10.84c2.19-8.19,5.1-16.09,8.78-23.72
				c3.43-7.11,7.08-14.1,11.9-20.41c0.14-0.18,0.06-0.52,0.09-0.79c-0.24-0.02-0.59-0.15-0.7-0.04c-1.63,1.62-3.41,3.13-4.8,4.94
				c-5.46,7.09-9.73,14.83-12.86,23.24C478.73,1099.23,476.84,1109.01,475.78,1119.51z M629.19,1078.04
				c-0.17-1.02-0.5-2.69-0.75-4.38c-1.3-8.74-5.23-16.27-10.76-23.06c-0.17-0.21-0.44-0.34-0.69-0.47c-0.1-0.05-0.28-0.05-0.38,0.01
				c-0.1,0.05-0.23,0.25-0.2,0.31c1.34,2.53,2.87,4.97,4,7.59c2.73,6.3,5.3,12.66,6.88,19.37c0.23,0.96,0.62,1.89,0.96,2.83
				c0.04,0.12,0.28,0.29,0.29,0.27c0.17-0.14,0.42-0.29,0.46-0.49C629.12,1079.6,629.11,1079.17,629.19,1078.04z"/>
			<path class="st1" d="M418.68,1161.69c-5.79,0.21-11.48-0.65-17.19-1.45c-10.43-1.46-20.17-4.84-29.17-10.18
				c-7.66-4.54-14.11-10.45-18.74-18.12c-2.54-4.22-4.05-8.87-5.22-13.6c-1.43-5.78-1.3-11.69-0.8-17.54
				c0.29-3.39,1.19-6.74,2.16-10.05c2.85-9.69,7.16-18.75,11.94-27.59c6.09-11.24,13.18-21.89,19.7-32.88
				c3.95-6.66,7.88-13.34,11.06-20.43c2.28-5.1,4.6-10.22,7.74-14.89c3.13-4.66,6.67-8.94,11-12.62
				c6.19-5.27,12.84-9.71,20.45-12.66c0.12-0.05,0.19-0.2,0.29-0.3c-0.24-0.14-0.49-0.41-0.72-0.39c-0.99,0.07-2.02,0.1-2.96,0.38
				c-4.74,1.37-9.21,3.39-13.23,6.23c-3.29,2.32-6.64,4.61-9.33,7.65c-2.19,2.48-4.24,5.06-6.37,7.59c-0.09,0.1-0.25,0.19-0.38,0.19
				c-0.08,0-0.22-0.17-0.22-0.27c-0.04-0.57-0.13-1.14-0.05-1.7c0.68-4.93,2.56-9.35,5.64-13.29c4.66-5.95,10.84-9.77,17.7-12.68
				c0.53-0.22,1.07-0.42,1.56-0.7c0.23-0.13,0.37-0.42,0.56-0.64c-0.23-0.1-0.48-0.33-0.68-0.29c-4.51,1.02-8.86,2.43-12.86,4.83
				c-6.37,3.82-11.31,8.82-13.86,15.91c-0.1,0.27-0.17,0.54-0.27,0.81c-0.03,0.06-0.14,0.09-0.22,0.13
				c-0.06-0.13-0.16-0.26-0.16-0.39c-0.01-0.86-0.11-1.73,0.01-2.58c1.34-9.89,5.33-18.4,13.25-24.81c3.95-3.2,8.42-5.53,13.29-7.02
				c3.02-0.92,6.09-1.7,9.13-2.54c0.27-0.08,0.54-0.17,0.79-0.29c0.08-0.04,0.18-0.23,0.16-0.26c-0.09-0.11-0.22-0.25-0.34-0.25
				c-1.44-0.04-2.9-0.22-4.32-0.05c-6.98,0.84-13.46,3.1-19.26,7.1c-7.56,5.23-12.26,12.47-14.41,21.27
				c-0.85,3.48-0.57,7.15-0.14,10.72c0.15,1.23,0.92,2.39,1.37,3.6c0.44,1.2-0.16,2.08-1.36,1.96c-0.86-0.08-1.75-0.13-2.55-0.4
				c-3.14-1.05-6.34-1.98-9.35-3.33c-8.81-3.95-17.54-8.07-26.3-12.12c-0.65-0.3-1.31-0.6-1.95-0.94c-0.79-0.42-1.37-1-1.56-1.94
				c-0.14-0.7-0.57-1.35-0.63-2.05c-0.41-4.68-1.61-9.31-0.4-14.08c0.55-2.19,0.47-4.52,0.93-6.79c1.86-9.35,5.95-17.55,11.99-24.92
				c3.07-3.74,6.72-6.67,10.79-9.17c2.69-1.65,2.73-1.6,5.55-0.44c3.73,1.53,7.42,3.18,11.2,4.57c7.29,2.69,14.67,5.08,22.16,7.2
				c9,2.55,18.12,4.66,26.98,7.65c5.07,1.71,9.96,3.83,14.58,6.51c4.52,2.63,8.45,5.95,11.52,10.25c3.2,4.48,4.57,9.53,4.89,14.9
				c0.47,7.82-1.14,15.37-3.15,22.86c-2.08,7.74-4.53,15.38-7.03,23c-3.08,9.39-6.01,18.82-8.92,28.27
				c-1.56,5.06-2.91,10.18-4.36,15.27c-0.24,0.83-0.57,1.63-0.75,2.46c-0.54,2.43-2.08,4-4.23,5.15c-4.36,2.34-9.05,3.67-13.86,4.69
				c-1.97,0.42-3.97,0.67-5.94,1.08c-1.12,0.23-2.24,0.57-3.31,0.97c-3.04,1.12-3.55,2.49-1.94,5.2c0.96,1.6,2.03,3.14,3.01,4.72
				c0.44,0.71,0.12,1.51-0.63,1.68c-7.06,1.61-13.69,4.41-20.24,7.4c-0.25,0.12-0.46,0.34-0.68,0.53c-0.1,0.09-0.16,0.23-0.24,0.35
				c0.21,0.1,0.43,0.28,0.64,0.27c0.27-0.01,0.54-0.19,0.81-0.27c5.39-1.55,10.78-3.1,16.18-4.63c1.11-0.31,2.22-0.62,3.35-0.83
				c0.95-0.17,2.03-1.2,2.83-0.32c0.83,0.91,1.26,2.2,1.73,3.37c0.11,0.28-0.21,0.81-0.46,1.12c-0.26,0.32-0.68,0.53-1.03,0.77
				c-2,1.41-4.01,2.8-5.99,4.24c-0.62,0.45-1.63,0.58-1.53,1.68c0.79-0.25,1.62-0.42,2.37-0.76c0.78-0.35,1.48-0.89,2.24-1.31
				c3.96-2.17,5.97-2.88,5.78-2.28c-0.65,2.01-2.46,3.14-3.74,4.67c-6.57,7.85-14.01,14.87-21.24,22.1c-0.4,0.4-0.76,0.86-1.11,1.31
				c-0.06,0.08-0.05,0.33-0.04,0.34c0.26,0.06,0.54,0.17,0.78,0.11c0.27-0.06,0.5-0.28,0.73-0.44c6.45-4.63,12.59-9.62,18.04-15.4
				c2.66-2.82,5.07-5.87,7.58-8.83c0.52-0.61,0.78-0.59,1.17,0.22c1.59,3.37,3.16,6.75,4.76,10.12c0.33,0.69,0.4,1.36,0.14,2.07
				c-0.68,1.89-1.35,3.78-2.03,5.66c-2.5,6.88-4.18,13.98-5.47,21.16c-1.32,7.37-1.37,14.83-0.99,22.29
				c0.09,1.84,0.61,3.66,0.89,5.5c0.16,1.06-0.31,1.59-1.45,1.61C422.72,1161.71,420.7,1161.69,418.68,1161.69z"/>
			<path class="st1" d="M625.51,891.34c-1.33-0.05-2.04,0.94-2.87,1.7c-0.34,0.31-0.26,0.93,0.13,1.03
				c1.11,0.29,2.22,0.56,3.35,0.79c2.05,0.43,2.7,2.26,1.25,3.82c-1.57,1.68-3.22,3.29-4.92,4.85c-0.5,0.46-1.23,0.76-1.91,0.9
				c-1.4,0.29-2.83,0.52-4.26,0.58c-1.9,0.08-3.38,0.84-4.33,2.42c-1.26,2.09-2.38,4.25-3.54,6.39c-0.47,0.88-0.82,1.83-1.34,2.68
				c-1.19,1.94-2.54,2.19-4.25,0.85c-0.34-0.27-0.61-0.61-0.94-0.89c-1.57-1.28-2.39-1.27-3.72,0.06c-0.51,0.51-0.94,1.09-1.46,1.59
				c-1.01,0.98-2.04,1.07-3.09,0.26c-0.57-0.44-1.05-0.99-1.62-1.42c-0.32-0.24-0.77-0.45-1.15-0.44c-0.79,0.02-0.71,0.71-0.76,1.26
				c-0.03,0.28,0.02,0.58-0.01,0.86c-0.18,1.89-0.21,1.98-2.45,1.66c-0.82-0.12-1.41,0.11-1.98,0.5c-1.07,0.72-2.08,1.55-3.15,2.28
				c-2.16,1.46-4.22,1.38-6.4-0.14c-1.85-1.28-3.12-2.96-4.17-4.85c-1.91-3.43-2.75-7.19-3.49-11c-0.63-3.25-0.7-6.53-1-9.8
				c-0.01-0.12-0.18-0.35-0.23-0.34c-0.25,0.07-0.61,0.13-0.72,0.31c-0.27,0.49-0.58,1.03-0.62,1.56c-0.13,2-0.18,4.01-0.19,6.02
				c-0.01,1.29,0.1,2.58,0.13,3.87c0.02,1.19-0.49,1.76-1.5,1.43c-1.97-0.65-3.98-0.57-6-0.62c-1.9-0.05-1.96-0.12-0.97-1.96
				c2.94-5.44,5.52-11.03,7.3-16.97c1.73-5.76,3.12-11.58,4.04-17.54c0.53-3.43,0.66-6.83,0.79-10.26c0.04-1.15,0.01-2.3,0.17-3.44
				c0.4-2.85,1.22-5.56,2.63-8.12c4.41-8,10.54-14.33,18.46-18.91c2.89-1.67,6.14-2.43,9.48-2.74c0.71-0.07,1.43-0.14,2.14-0.24
				c0.12-0.02,0.25-0.16,0.31-0.28c0.02-0.05-0.11-0.25-0.2-0.27c-1.82-0.4-3.65-0.79-5.47-1.19c-0.13-0.03-0.24-0.16-0.35-0.24
				c0.09-0.07,0.17-0.18,0.27-0.21c0.28-0.07,0.56-0.14,0.84-0.16c4.66-0.31,9.23-0.05,13.46,2.25c0.21,0.11,0.63,0.1,0.79-0.03
				c0.47-0.38,0.07-0.78-0.17-1.06c-0.74-0.88-1.54-1.71-2.32-2.56c-0.19-0.21-0.41-0.41-0.59-0.63c-0.06-0.08-0.11-0.27-0.07-0.31
				c0.09-0.08,0.27-0.17,0.37-0.14c2.35,0.83,4.44,2.05,5.95,4.08c0.51,0.69,0.97,1.43,1.45,2.14c0.89,1.31,0.89,1.32,2.03-0.1
				c0.18-0.22,0.32-0.47,0.48-0.71c0.15,0.32,0.35,0.63,0.45,0.96c0.08,0.27,0,0.58,0.07,0.85c0.09,0.41,0.17,0.77,0.81,0.7
				c2-0.22,4.02-0.36,6.03-0.5c3.03-0.22,5.65,0.88,8.09,2.54c0.91,0.62,1.43,1.51,1.06,1.53c-0.53,0.03-1.08-0.11-1.6-0.25
				c-1.25-0.35-2.46-0.81-3.72-1.09c-0.51-0.11-1.41-0.03-1.59,0.28c-0.31,0.55,0.37,0.95,0.85,1.17c6.24,2.8,10.27,7.67,13.3,13.59
				c2.91,5.68,4.81,11.62,5.33,18c0.17,2.13,0.47,4.28,1.01,6.35c0.83,3.2,2,6.29,4.41,8.75c0.12,0.12,0.03,0.43,0.04,0.65
				c-0.28-0.03-0.56-0.05-0.83-0.09c-0.27-0.03-0.53-0.07-0.79-0.11c0.03,0.38-0.06,0.83,0.11,1.13c0.28,0.49,0.7,0.91,1.12,1.3
				c0.64,0.58,1.33,1.1,1.99,1.65c0.09,0.08,0.15,0.2,0.22,0.3c-0.26,0.09-0.57,0.33-0.77,0.26c-1.21-0.44-2.39-0.94-3.57-1.45
				c-0.65-0.28-1.26-0.67-1.92-0.92c-0.15-0.06-0.65,0.28-0.64,0.36c0.25,1.26,0.61,2.51,0.83,3.77c0.19,1.12,0.24,2.26,0.34,3.4
				c0.01,0.13-0.09,0.27-0.14,0.4c-0.15-0.14-0.34-0.27-0.45-0.44c-0.23-0.37-0.38-0.77-0.62-1.13c-0.23-0.35-0.52-0.66-0.79-0.99
				c-0.18,0.36-0.47,0.69-0.54,1.07c-0.32,1.97-0.43,4-0.92,5.93c-0.45,1.79-1.27,3.49-1.98,5.2c-0.15,0.36-0.58,0.61-0.88,0.9
				c-0.14-0.36-0.38-0.71-0.4-1.07c-0.09-2.14-0.12-4.28-0.19-6.42c0-0.12-0.15-0.29-0.26-0.32c-0.11-0.03-0.33,0.03-0.4,0.12
				c-0.41,0.58-0.79,1.17-1.17,1.76c-1.01,1.56-2,3.13-3.04,4.68c-0.13,0.19-0.46,0.24-0.69,0.36c-0.06-0.25-0.22-0.53-0.17-0.75
				c0.17-0.69,0.42-1.35,0.62-2.03c0.03-0.12-0.04-0.28-0.09-0.4c-0.15-0.35-0.41-0.41-0.69-0.12c-1.92,2.01-4.15,3.54-6.85,4.32
				c-0.12,0.03-0.28-0.01-0.4-0.07c-0.07-0.04-0.15-0.2-0.13-0.26c0.05-0.12,0.16-0.25,0.28-0.32c2.17-1.27,2.98-3.41,3.67-5.63
				c0.54-1.76,0.57-1.72-1.55-1.49c-0.28,0.03-0.88-0.42-0.86-0.61c0.07-0.84,0.29-1.67,0.48-2.5c0.17-0.76-0.02-1.45-0.52-1.99
				c-0.25-0.27-0.76-0.58-1.04-0.5c-1.24,0.36-2.43,0.87-3.65,1.27c-0.14,0.05-0.41-0.31-0.62-0.48c2.05-1.08,3.16-2.85,3.75-5.01
				c0.04-0.14,0.15-0.3,0.11-0.41c-0.08-0.21-0.22-0.43-0.39-0.58c-0.08-0.07-0.31-0.06-0.42,0.01c-1.47,0.81-2.61,2.28-4.6,1.98
				c-0.67-0.1-1.4,0.12-2.1,0.19c-0.45-1.01,0.72-1.32,0.91-2.07c0.14-0.55,0.44-1.06,0.65-1.59c0.2-0.49-0.29-0.93-1.01-0.93
				c-1.18,0-1.18,0-0.9-0.92c0.12-0.4,0.27-0.81,0.31-1.22c0.01-0.1-0.48-0.39-0.53-0.35c-1.42,1.18-2.84,1.99-4.61,0.53
				c-0.23-0.19-0.89-0.12-1.22,0.06c-2.48,1.37-4.88,2.16-7.78,0.89c-1.53-0.67-3.37,0-5.06,0.54c-2.62,0.84-5.1,1.96-7.57,3.14
				c-1.3,0.62-2.25,0.06-2.36-1.42c-0.07-0.96,0.12-1.94,0.12-2.92c0-0.1-0.54-0.34-0.72-0.27c-1.05,0.46-1.61,1.36-1.39,2.38
				c0.27,1.26,0.58,2.52,1.06,3.71c0.17,0.41,0.85,0.79,1.35,0.87c1.35,0.22,2.52-0.48,3.7-1.01c2.23-1,4.37-2.14,6.8-2.72
				c1.63-0.4,3.04-0.6,4.55,0.27c0.58,0.34,1.38,0.52,2.05,0.46c2-0.18,4.06-0.27,5.96-0.85c1.75-0.53,2.75,0.17,3.7,1.31
				c0.15,0.19,0.01,0.9-0.22,1.06c-0.58,0.4-1.29,0.59-1.92,0.94c-0.22,0.12-0.43,0.43-0.46,0.68c-0.02,0.16,0.26,0.48,0.46,0.53
				c2.22,0.59,4.42,1.22,6.77,1.19C625.4,890.01,625.46,890.77,625.51,891.34z M575.15,878.63c0.03,0.41-0.01,1.29,0.16,2.12
				c0.26,1.29,0.81,2.46,2.03,3.15c0.34,0.19,0.77,0.21,1.16,0.32c0-0.38,0.15-0.91-0.04-1.11c-1.09-1.11-1.39-2.43-1.4-3.93
				c-0.03-5.46,2.85-9.12,7.28-11.85c1.71-1.05,3.6-0.97,5.46-0.65c1.85,0.32,3.52,2.42,3.67,4.28c0.18,2.28-0.62,4.2-2,5.96
				c-0.08,0.1,0.09,0.44,0.21,0.62c0.04,0.06,0.29,0.05,0.41,0.01c1.15-0.4,1.98-1.23,2.53-2.23c2.11-3.79,2.19-6.9-1.68-9.82
				c-1.98-1.49-4.39-2.01-6.96-1.29C579.77,865.94,575.23,871.75,575.15,878.63z"/>
			<path class="st1" d="M689.04,1001.14c-0.02,2.46-0.16,4.31-0.92,6.06c-0.22,0.51,0.23,1.22,0.77,1.32c2.26,0.44,4.46,1.2,6.81,1
				c0.12-0.01,0.25,0.11,0.38,0.17c-0.13,0.16-0.24,0.41-0.4,0.45c-1.39,0.38-2.79,0.7-4.17,1.08c-0.19,0.05-0.46,0.37-0.43,0.53
				c0.04,0.25,0.26,0.58,0.48,0.66c1.49,0.49,3,0.93,4.52,1.37c0.62,0.18,1.25,0.3,1.87,0.45c-0.66,0.27-1.31,0.6-2,0.78
				c-0.97,0.25-1.97,0.38-2.95,0.58c-0.4,0.08-0.5,0.32-0.26,0.63c0.35,0.45,0.72,0.88,1.09,1.31c1.43,1.64,2.62,3.42,3.44,5.43
				c0.15,0.37,0.26,1.01,0.07,1.21c-0.52,0.51-0.51-0.27-0.73-0.47c-1.17-1.06-2.28-2.18-3.47-3.21c-0.75-0.65-1.92-0.81-1.89-0.45
				c0.04,0.53,0.15,1.08,0.37,1.56c0.71,1.56,1.72,3.02,1.56,4.84c-0.02,0.23-0.21,0.45-0.33,0.67c-0.1-0.1-0.24-0.18-0.31-0.3
				c-0.9-1.48-1.89-2.88-3.37-3.86c-0.11-0.07-0.32-0.16-0.4-0.11c-0.2,0.12-0.49,0.3-0.51,0.49c-0.09,0.71-0.14,1.43-0.1,2.15
				c0.17,3.79-1.44,6.95-3.53,9.94c-0.08,0.11-0.22,0.18-0.33,0.27c-0.1-0.2-0.33-0.43-0.28-0.58c0.38-1.23,0.9-2.42,1.2-3.67
				c0.23-0.96,0.22-1.97,0.25-2.97c0.01-0.2-0.28-0.41-0.44-0.61c-0.12,0.09-0.27,0.15-0.34,0.26c-0.29,0.5-0.56,1-0.81,1.52
				c-3.05,6.3-7.84,10.89-13.96,14.23c-3.68,2.01-7.57,3.51-11.46,5.04c-2.41,0.95-4.89,1.74-7.28,2.72
				c-3.87,1.58-7.74,3.17-11.16,5.63c-0.88,0.63-1.44,0.45-2.13-0.53c-1.75-2.46-3.4-4.99-5.25-7.37
				c-7.98-10.25-17.66-18.46-29.46-24.13c-4.8-2.31-9.47-4.92-14.86-5.71c-0.54-0.08-0.88-0.8-0.73-1.34
				c0.48-1.72,1.24-3.18,3.11-3.83c0.88-0.31,1.31-1.07,1.23-2.05c-0.04-0.43-0.04-0.86-0.04-1.29c-0.02-0.91,0.32-1.68,1.01-2.28
				c0.54-0.47,1.08-0.96,1.64-1.41c0.9-0.72,1.24-1.6,0.69-2.65c-0.61-1.18-0.88-2.42-0.85-3.73c0.02-1.33,0.54-2.18,1.86-2.57
				c2.21-0.65,4.45-1.17,6.67-1.77c1.39-0.37,2.79-0.73,4.14-1.21c1.98-0.71,3.51-1.97,4.31-3.97c0.48-1.2,0.99-2.38,1.42-3.6
				c0.56-1.59,1.59-2.68,3.14-3.35c3.32-1.44,6.82-2.28,10.31-3.14c0.41-0.1,0.86-0.07,1.29-0.02c1.86,0.21,3.72,0.43,5.57,0.67
				c0.27,0.04,0.52,0.19,0.79,0.3c-0.14,0.25-0.26,0.51-0.44,0.73c-0.52,0.68-1.13,1.32-1.59,2.04c-0.79,1.24-1.29,2.67-0.91,4.1
				c0.8,3.02-0.6,5.26-2.4,7.39c-0.55,0.66-1.22,1.22-1.83,1.83c-0.82,0.81-1.63,1.63-2.47,2.42c-1.67,1.57-1.85,3.03,0.38,4.55
				c0.24,0.16,0.47,0.35,0.73,0.47c3.83,1.72,3.29,2.91,8.49,1.01c1.94-0.71,3.69-0.15,5.43,0.5c1.33,0.49,2.15,2.19,1.75,3.58
				c-0.31,1.08-0.72,2.24-1.43,3.08c-4.06,4.87-9.32,7.08-15.67,6.52c-0.93-0.08-1.81-0.78-2.72-1.17c-0.1-0.05-0.34-0.04-0.36,0.01
				c-0.11,0.25-0.29,0.56-0.22,0.77c0.38,1.12,0.96,2.03,2.23,2.42c1.39,0.43,2.78,0.87,4.24,0.64c4.31-0.67,8.48-1.74,11.98-4.51
				c3.34-2.65,4.64-6.12,4.01-10.29c-0.24-1.55-1.25-2.61-2.66-3.16c-2.46-0.95-4.97-1.53-7.56-0.35c-0.65,0.3-1.33,0.58-2.03,0.72
				c-0.53,0.11-1.18,0.16-1.65-0.04c-1.18-0.52-2.31-1.18-3.43-1.82c-0.75-0.42-0.78-1.03-0.09-1.72c1.03-1.01,2.15-1.93,3.1-3.01
				c1.23-1.4,2.39-2.86,3.46-4.39c0.92-1.32,1.48-2.85,1.25-4.47c-0.41-2.83,0.61-5.04,2.66-6.89c0.21-0.19,0.37-0.44,0.54-0.67
				c0.46-0.6,0.21-1.4-0.61-1.69c-0.94-0.33-1.91-0.6-2.88-0.83c-0.84-0.2-1.7-0.28-2.54-0.47c-0.77-0.17-0.93-0.58-0.82-1.82
				c0.08-0.82-0.6-1.36-1.35-1c-0.77,0.36-1.48,0.84-2.21,1.28c-0.48,0.29-0.94,0.61-1.43,0.88c-0.08,0.05-0.28-0.02-0.37-0.1
				c-0.09-0.08-0.21-0.26-0.17-0.34c0.45-1.04,0.84-2.11,1.42-3.07c0.36-0.59,0.99-1.04,1.53-1.51c0.76-0.65,1.56-1.26,2.34-1.88
				c-0.83-0.5-1.69-0.95-2.48-1.51c-0.69-0.49-1.3-1.1-1.93-1.67c-0.08-0.08-0.13-0.28-0.09-0.38c0.05-0.11,0.22-0.22,0.34-0.24
				c0.28-0.03,0.59-0.09,0.84,0c3.07,1.15,6.27,0.74,9.43,0.83c0.81,0.02,1.19-0.46,1.24-1.4c0.07-1.29,0.13-2.57,0.21-3.86
				c0.01-0.13,0.12-0.26,0.19-0.38c0.08,0.11,0.21,0.21,0.24,0.34c0.38,1.4,0.94,2.71,1.98,3.77c0.09,0.1,0.35,0.2,0.37,0.17
				c0.17-0.19,0.44-0.44,0.41-0.63c-0.18-1.12-0.45-2.22-0.66-3.33c-0.02-0.11,0.11-0.26,0.21-0.36c0.03-0.03,0.22,0.02,0.26,0.09
				c0.6,0.8,1.14,1.66,1.79,2.42c2.09,2.45,4.53,4.38,7.75,5.23c2.08,0.55,4.08,1.4,6.16,1.99c5.35,1.52,10.09,4.27,14.53,7.47
				c3.85,2.78,7.41,5.91,10.29,9.77c2.09,2.79,3.88,5.68,4.78,9.07c0.25,0.95,0.71,1.85,1.12,2.76c0.03,0.06,0.55,0.03,0.67-0.1
				c0.73-0.77,0.87-1.78,1.05-2.77c0.03-0.19,0.25-0.35,0.38-0.52c0.11,0.26,0.28,0.51,0.31,0.77
				C689.03,1000.29,689.04,1001.01,689.04,1001.14z"/>
			<path class="st1" d="M346.35,991.67c-0.03-0.56,0.04-0.88-0.07-1.13c-0.76-1.71-0.24-3.35,0.13-5.04
				c0.42-1.95,0.89-3.89,1.24-5.87c0.3-1.73-0.14-3.71,1.2-5.23c1.59,0.64,3.19,1.27,4.77,1.93c8.91,3.71,17.7,7.7,26.4,11.87
				c4.68,2.25,9.48,4.17,14.65,5.02c1.02,0.17,1.45,0.91,1.13,1.85c-0.28,0.81-0.6,1.61-0.99,2.38c-3.39,6.81-6.64,13.7-10.25,20.39
				c-3.27,6.06-6.9,11.92-10.44,17.83c-4.56,7.64-9.4,15.13-13.72,22.9c-4.82,8.65-9.34,17.47-12.48,26.9
				c-0.18,0.54-0.45,1.06-0.69,1.58c-0.25,0.55-0.66,0.43-0.97,0.12c-0.72-0.71-1.38-1.47-2.07-2.2
				c-8.59-9.01-19.02-14.67-31.25-17.24c-3.74-0.79-7.44-0.74-11.18-0.73c-0.72,0-1.46,0.09-2.15-0.03
				c-0.25-0.04-0.66-0.68-0.58-0.89c1.12-2.94,2.17-5.92,3.51-8.77c3.41-7.27,6.9-14.52,10.47-21.72
				c4.22-8.51,9.27-16.51,15.17-23.98c2.22-2.81,4.19-5.83,6.13-8.85c1.35-2.1,3.03-3.81,5.03-5.26c1.98-1.43,3.99-2.83,5.92-4.33
				C345.78,992.77,346.08,992.06,346.35,991.67z"/>
			<path class="st1" d="M304.58,1069.86c4.38-0.07,8.56,1.03,12.69,2.29c4.7,1.43,9.19,3.38,13.41,5.91
				c0.61,0.36,0.71,0.82,0.28,1.39c-1.92,2.51-3.87,4.99-5.81,7.49c-1.76,2.27-3.45,4.6-5.27,6.82c-4.85,5.89-7.93,12.59-9.53,20.01
				c-0.3,1.4-0.84,2.76-0.99,4.17c-0.26,2.49-1.15,4.73-2.38,6.86c-0.9,1.55-1.38,3.06-0.79,4.89c0.34,1.06,0.17,2.28,0.29,3.42
				c0.46,4.41,1.02,8.81,2.48,13.03c0.33,0.95,0.66,1.9,1.09,2.8c0.73,1.49,1.81,2.55,3.6,2.73c0.7,0.07,1.39,0.33,2.07,0.57
				c1.89,0.66,2.61,2.17,2.75,3.99c0.04,0.52-0.21,1.14-0.51,1.59c-1.01,1.54-2.43,2.43-4.36,2.27c-1.15-0.1-2.38,0.02-3.42-0.38
				c-1.7-0.65-2.91-0.26-4.39,0.7c-1.79,1.16-3.9,0.97-5.7-0.25c-0.99-0.67-1.82-0.69-2.76-0.11c-1.37,0.84-2.73,0.76-4.08-0.04
				c-1.02-0.6-2.04-1.1-3.26-0.63c-1.87,0.72-3.47,0.05-4.64-1.31c-0.83-0.97-1.71-1.27-2.89-1.55c-4.6-1.06-7.22-4.56-7.77-9.2
				c-0.1-0.85-0.03-1.72,0.01-2.58c0.09-1.89-0.11-3.7-0.95-5.45c-0.49-1.02-0.78-2.16-0.98-3.28c-0.58-3.34,0.58-6.21,2.6-8.81
				c1.32-1.7,2.7-3.36,4.05-5.04c2.06-2.55,3.32-5.36,2.95-8.72c-0.34-3.09,0.74-5.65,3.03-7.7c3.98-3.57,6.41-8.14,8.11-13.05
				c2.25-6.49,4.15-13.1,6.19-19.66c0.17-0.55,0.26-1.12,0.44-1.66c0.33-1.03,0.85-1.46,1.84-1.5
				C302.84,1069.84,303.71,1069.86,304.58,1069.86z"/>
			<path class="st1" d="M316.21,897.93c0.38-2.29,0.63-4.56,1.98-6.54c1.62-2.38,3.3-4.67,5.58-6.5c1.91-1.53,3.62-3.29,5.45-4.91
				c5.87-5.21,10.53-11.37,14.45-18.12c1.8-3.1,3.62-6.18,6.07-8.87c1.58-1.74,3.25-3.21,5.56-3.88c1.69-0.49,3.11-1.38,4.29-2.74
				c1.27-1.46,2.87-2.37,4.95-2.13c0.96,0.11,1.51-0.43,2.11-1.16c2.07-2.5,4.21-2.97,7.26-1.59c1.09,0.49,1.99,0.98,3.2,0.29
				c0.57-0.32,1.4-0.25,2.11-0.28c1.47-0.07,2.44,0.73,3.13,1.92c0.53,0.9,0.41,2.1-0.26,2.8c-0.3,0.31-0.6,0.63-0.95,0.88
				c-2.65,1.97-5.26,4.01-8,5.86c-2.34,1.58-4.15,3.54-5.3,6.09c-0.94,2.09-1.92,4.17-2.71,6.32c-2.12,5.78-3.99,11.64-5.38,17.64
				c-0.73,3.13-0.6,6.26-0.34,9.4c0.06,0.69,0.38,1.37,0.64,2.04c2.01,5.2,5.36,9.44,9.56,13.05c0.44,0.38,0.88,0.74,1.3,1.13
				c2.46,2.32,3.36,1.93-0.34,4.32c-5.55,3.59-9.86,8.33-13.13,14.02c-0.86,1.49-1.78,2.95-2.68,4.42c-0.22,0.37-0.77,0.35-1.1-0.03
				c-2.36-2.71-4.6-5.53-7.1-8.1c-5.34-5.51-11.33-10.15-18.52-13.13c-2.92-1.21-5.78-2.57-8.2-4.72
				C317.6,903.37,316.44,900.9,316.21,897.93z"/>
			<path class="st1" d="M348.73,950.47c-1.09,4.69-0.66,9.43-0.55,14.15c0.04,1.55,0.52,3.09,0.76,4.64
				c0.13,0.81-0.46,1.46-1.22,1.33c-1.27-0.23-2.52-0.62-3.8-0.77c-6.49-0.76-12.67,0.23-18.35,3.54c-2.01,1.17-4.07,2.16-6.33,2.69
				c-1.11,0.26-2.25,0.49-3.38,0.57c-5.16,0.35-9.64-3.09-10.68-8.17c-0.7-3.45-1.47-6.95-0.66-10.63c0.48-2.17,0.06-4.55-0.12-6.83
				c-0.15-1.99-0.46-3.98-0.83-5.94c-0.71-3.83-2.28-7.38-3.71-10.97c-0.58-1.47-1.18-2.92-1.71-4.41
				c-1.46-4.09-2.19-8.29-2.09-12.65c0.04-1.62,0.17-3.14,1.26-4.44c0.6-0.72,0.75-1.55,0.42-2.42c-0.7-1.84,0.18-3.02,1.65-3.92
				c0.7-0.42,1.01-0.87,0.81-1.73c-0.12-0.5-0.1-1.25,0.19-1.6c1.15-1.4,2.37-3,4.04-3.56c1.44-0.48,2.16-1.06,2.57-2.43
				c0.43-1.42,1.38-2.45,2.79-3.11c1.06-0.49,1.97-0.34,2.84,0.28c0.31,0.22,0.6,0.63,0.68,1c0.12,0.55,0.11,1.15,0.05,1.71
				c-0.43,4.15,1.25,7.61,3.79,10.66c1.07,1.29,1.75,2.65,2.02,4.19c0.58,3.3,1.9,6.3,3.53,9.18c2.12,3.75,4.15,7.56,6.5,11.16
				c2.38,3.64,5.49,6.61,9.41,8.71c3.2,1.71,6.58,2.89,10.03,3.94c0.91,0.28,1.12,0.74,0.93,1.63
				C349.3,947.68,349.02,949.08,348.73,950.47z"/>
			<path class="st1" d="M592.55,938.96c-0.15,3.29-0.85,5.9-1.98,8.4c-0.76,1.7-1.58,3.37-2.37,5.06c-0.61,1.32-0.91,2.69-0.84,4.17
				c0.07,1.72-0.04,3.44,0.03,5.16c0.27,6.46-0.95,12.85-0.97,19.3c-0.78,3.09-0.58,6.26-0.85,9.39c-0.32,3.7-0.89,7.37-1.35,11.05
				c-0.09,0.71-0.15,1.43-0.2,2.14c-0.3,4.42-0.59,8.85-0.89,13.27c-0.05,0.77-0.47,1.02-1.14,0.63c-0.99-0.59-2.01-1.14-2.9-1.86
				c-1.05-0.86-1.39-2.41-0.54-3.48c2.11-2.66,1-5.18-0.16-7.65c-0.79-1.68-1.85-3.24-2.93-4.76c-5.99-8.43-11.63-17.08-16.51-26.21
				c-1.42-2.65-3.13-5.15-4.72-7.71c-0.36-0.59-0.32-1.07,0.26-1.45c6.4-4.25,11.04-10.05,14.58-16.73
				c2.15-4.06,3.55-8.44,4.53-12.93c0.12-0.54,0.03-1.14-0.04-1.71c-0.02-0.2-0.27-0.38-0.42-0.56c-0.09,0.11-0.23,0.2-0.27,0.33
				c-1.78,5.49-4.52,10.53-7.49,15.45c-3.15,5.22-7.37,9.53-12.1,13.35c-0.5,0.41-1.01,0.17-1.25-0.55
				c-0.18-0.54-0.3-1.11-0.52-1.63c-0.77-1.83-0.35-3.22,1.19-4.55c3.06-2.64,5.57-5.79,7.93-9.07c4.67-6.51,7.5-13.82,9.57-21.47
				c0.11-0.41,0.19-0.83,0.31-1.24c0.11-0.4,0.72-0.54,1.07-0.23c0.86,0.76,1.68,1.58,2.57,2.3c2.62,2.14,6.23,2.49,9.29,0.62
				c0.86-0.53,1.71-1.08,2.51-1.69c1.14-0.88,2.41-0.83,3.72-0.62c0.64,0.1,1,0.5,1.08,1.13c0.36,3.12,0.69,6.25,1.08,9.37
				C592.05,935.81,592.36,937.64,592.55,938.96z M585.59,945.96c-0.04-0.21-0.03-0.37-0.1-0.47c-0.06-0.09-0.24-0.18-0.31-0.15
				c-0.25,0.13-0.51,0.27-0.71,0.47c-5.15,5.26-11.03,9.55-17.46,13.13c-1.12,0.63-2.18,1.38-3.23,2.11
				c-0.18,0.12-0.36,0.56-0.28,0.68c0.13,0.19,0.52,0.39,0.72,0.32c1.35-0.44,2.7-0.92,4.02-1.45c7.01-2.8,12.49-7.47,16.77-13.59
				C585.25,946.66,585.42,946.27,585.59,945.96z"/>
			<path class="st1" d="M481.61,1012.82c0.46,0.33,0.88,0.5,1.12,0.82c0.52,0.68,0.94,1.44,1.4,2.16c3.19,4.97,6.9,9.52,11.14,13.64
				c0.62,0.6,1.22,1.22,1.83,1.82c0.54,0.53,0.82,1.04,0.46,1.87c-1.21,2.75-2.27,5.56-3.47,8.32c-1.48,3.41-3.11,6.77-4.52,10.21
				c-0.41,1.01-0.99,1.7-1.86,2.24c-4.53,2.83-8.4,6.51-12.55,9.82c-2.49,1.98-5.29,3.43-8.04,4.95c-0.16,0.09-0.58-0.06-0.73-0.22
				c-0.28-0.31-0.49-0.71-0.66-1.09c-2.36-5.2-6.39-8.74-11.43-11.25c-0.51-0.26-1.04-0.48-1.56-0.73c-0.7-0.33-1.07-0.67-0.77-1.63
				c0.85-2.73,1.44-5.53,2.28-8.26c2.07-6.69,4.22-13.36,6.35-20.03c0.3-0.94,0.58-1.84,1.62-2.39c5.84-3.11,11.63-6.3,17.45-9.44
				C480.29,1013.3,480.97,1013.09,481.61,1012.82z"/>
			<path class="st1" d="M585.1,1041.6c1.89,4.69,2.66,9.62,3.33,14.58c0.27,1.97,1.04,3.88,0.48,5.91
				c-0.05,0.19-0.42,0.32-0.66,0.43c-0.1,0.05-0.29,0-0.39-0.07c-0.23-0.17-0.5-0.34-0.61-0.58c-0.25-0.51-0.46-1.04-0.62-1.59
				c-0.56-1.92-1.04-3.87-1.65-5.77c-0.93-2.85-1.89-5.7-2.96-8.5c-0.72-1.9-1.98-3.49-3.55-4.8c-0.21-0.17-0.66-0.37-0.77-0.28
				c-0.28,0.23-0.64,0.65-0.6,0.94c0.31,2.26,0.71,4.5,1.07,6.76c0.43,2.67,0.85,5.35,1.24,8.03c0.03,0.24-0.17,0.73-0.29,0.74
				c-0.38,0.03-0.92,0.01-1.14-0.22c-1.33-1.42-1.69-3.31-2.19-5.07c-0.54-1.94-1.23-3.8-2.05-5.64c-1.03-2.3-2.61-4.1-4.61-5.58
				c-0.92-0.69-1.89-1.32-2.76-2.06c-2.34-1.98-4.25-4.23-5.14-7.27c-0.52-1.78-1.36-3.46-2.06-5.19c-0.36-0.89-0.16-1.68,0.45-2.38
				c2.7-3.11,6.08-5.24,9.92-6.67c1.08-0.4,2.25-0.56,3.28-1.04c1.54-0.71,2.59-0.34,3.8,0.8c2.77,2.59,6.21,4.11,9.75,5.39
				c1.35,0.49,2.7,1,4.05,1.47c2.91,1.02,5.18,3.06,7.71,4.68c4.57,2.93,7.88,7.08,11.28,11.16c0.07,0.08,0.1,0.33,0.07,0.35
				c-0.24,0.13-0.5,0.3-0.76,0.32c-2.15,0.16-3.98-0.62-5.48-2.09c-1.02-1-1.83-2.21-2.81-3.25c-1.17-1.25-2.43-2.42-3.66-3.61
				c-0.05-0.05-0.26-0.01-0.34,0.06c-0.1,0.08-0.23,0.23-0.22,0.34c0.03,0.42,0.01,0.88,0.2,1.23c0.88,1.64,1.75,3.29,2.76,4.85
				c2.91,4.48,5.07,9.3,6.76,14.34c0.13,0.4,0.33,0.85,0.26,1.24c-0.06,0.37-0.37,0.75-0.66,1.02c-0.14,0.12-0.62,0.1-0.75-0.04
				c-0.88-0.93-1.83-1.83-2.53-2.89c-1.03-1.55-1.91-3.2-2.8-4.83c-1.73-3.18-3.92-6-6.62-8.43c-0.16-0.14-0.48-0.12-0.72-0.17
				c-0.05,0.26-0.19,0.56-0.12,0.77c0.14,0.4,0.4,0.76,0.63,1.12c3.01,4.67,4.47,9.87,5.25,15.3c0.14,0.99,0.43,1.95,0.56,2.94
				c0.07,0.55,0.05,1.16-0.11,1.69c-0.11,0.35-0.49,0.78-0.83,0.86c-0.32,0.08-0.9-0.15-1.07-0.43c-0.45-0.72-0.78-1.53-1.08-2.33
				c-0.88-2.27-1.67-4.57-2.59-6.82c-1.53-3.76-3.87-7.01-6.49-10.08c-0.21-0.25-0.7-0.27-1.05-0.4
				C585.17,1041.08,585.01,1041.39,585.1,1041.6z"/>
			<path class="st1" d="M437.37,1161.77c-1.87,0-3.75,0.02-5.62-0.01c-0.96-0.02-1.61-0.54-1.96-1.42
				c-0.26-0.66-0.64-1.33-0.71-2.01c-0.35-3.41-0.97-6.85-0.81-10.24c0.2-4.26,0.47-8.54,1.2-12.78c0.58-3.38,1.17-6.74,1.91-10.09
				c2.23-10.1,5.52-19.84,10.17-29.09c2.32-4.61,4.85-9.11,7.44-13.58c1.14-1.98,2.69-3.72,3.97-5.62c0.64-0.96,1.45-1.39,2.54-1.17
				c1.12,0.22,2.23,0.51,3.31,0.87c0.98,0.33,1.12,0.8,0.67,1.58c-0.99,1.74-2.09,3.44-2.95,5.25c-3.62,7.65-6.65,15.52-8.66,23.75
				c-0.98,4.02-1.87,8.07-2.74,12.11c-0.88,4.05-1.27,8.17-1.83,12.27c-0.7,5.15-0.62,10.27-0.7,15.42
				c-0.07,4.46,0.54,8.83,1.64,13.14c0.28,1.11-0.12,1.67-1.24,1.7c-1.87,0.04-3.75,0.01-5.63,0.01
				C437.37,1161.82,437.37,1161.8,437.37,1161.77z"/>
			<path class="st1" d="M500.88,909.1c0,1.62,0.01,3.34,0,5.06c-0.02,2.92,0.12,3.08-3.14,3.01c-3.91-0.08-7.28,1.39-10.42,3.58
				c-1.28,0.9-1.42,0.89-2.52-0.28c-5.1-5.44-10.19-10.9-14.58-16.94c-0.83-1.14-1.42-2.49-1.98-3.8c-0.45-1.06-0.48-2.22-0.07-3.35
				c0.12-0.34,0.74-0.57,1.08-0.35c0.12,0.08,0.24,0.16,0.35,0.25c0.62,0.49,1.05,1.62,2.07,0.91c0.68-0.47,0.33-1.29,0.17-1.99
				c-0.41-1.81-0.81-3.62-1.17-5.43c-0.11-0.56-0.1-1.14-0.12-1.71c-0.04-1.45,0.69-2.46,1.97-3.04c0.28-0.13,1,0.04,1.08,0.25
				c0.53,1.32,0.89,2.71,1.4,4.04c0.13,0.35,0.56,0.79,0.89,0.82c0.69,0.07,0.86-0.61,0.98-1.13c0.12-0.54,0.14-1.11,0.1-1.66
				c-0.1-1.42-0.31-2.83-0.36-4.25c-0.07-1.66,0.93-2.62,2.4-3.19c0.49-0.19,1.31,0.04,1.5,0.49c0.38,0.92,0.71,1.86,1.03,2.81
				c0.18,0.53,0.25,1.09,0.96,1.24c0.58,0.12,0.87-0.18,1.17-1.48c0.22-0.97,0.38-1.96,0.61-2.94c0.1-0.41,0.25-0.82,0.44-1.2
				c0.58-1.16,2.57-1.38,3.3-0.31c0.64,0.94,1.22,1.94,1.68,2.98c1.57,3.6,3.72,6.78,6.71,9.35c2.18,1.88,3.12,4.22,3.58,7.06
				C500.6,901.61,500.75,905.29,500.88,909.1z"/>
			<path class="st1" d="M406.96,892.94c-0.09,7.39,1.54,14.45,4.13,21.33c0.86,2.27,1.73,4.54,2.58,6.82
				c0.02,0.05-0.22,0.28-0.29,0.26c-2.33-0.72-4.64-1.48-6.97-2.19c-1.65-0.5-3.32-0.91-4.98-1.39c-0.94-0.27-1.24-1.06-0.83-2.04
				c0.95-2.24,1.9-4.47,2.83-6.72c0.36-0.88,0.07-1.68-0.44-2.42c-0.86-1.25-2.03-2.07-3.56-2.16c-1.43-0.08-2.91-0.16-4.31,0.1
				c-3.81,0.71-7.59,1.59-11.17,3.15c-1.18,0.51-2.42,0.91-3.61,1.42c-1.79,0.76-3.47,0.47-4.85-0.73
				c-2.06-1.78-3.98-3.73-5.93-5.63c-0.12-0.11-0.09-0.59,0.04-0.7c0.89-0.73,1.78-1.45,2.74-2.09c5.62-3.77,11.42-7.2,17.8-9.6
				c4.73-1.78,9.5-3.28,14.63-3.28c0.57,0,1.13-0.23,1.7-0.25c0.15-0.01,0.46,0.35,0.46,0.54
				C406.97,889.22,406.96,891.08,406.96,892.94z"/>
			<path class="st1" d="M451.39,1069.19c0,0.72-0.01,1.43,0,2.15c0.02,1.34-0.47,2.47-1.2,3.6c-2.89,4.46-5.79,8.91-8.48,13.49
				c-2.03,3.46-3.73,7.11-5.61,10.66c-0.11,0.21-0.46,0.31-0.72,0.42c-0.04,0.02-0.2-0.17-0.27-0.28c-0.08-0.12-0.13-0.25-0.19-0.38
				c-0.12-0.26-0.28-0.51-0.36-0.78c-1.4-4.38-3.54-8.46-5.32-12.69c-1.79-4.25-4.17-8.18-6.61-12.08
				c-0.22-0.36-0.44-0.74-0.54-1.14c-0.05-0.22,0.08-0.6,0.26-0.74c0.32-0.26,0.72-0.49,1.12-0.58c4.21-0.93,8.45-1.75,12.64-2.78
				c2.23-0.55,4.4-1.37,6.54-2.2c1.89-0.73,3.68-1.69,5.08-3.2c2.01-2.16,2.18-1.51,2.99,0.61
				C451.48,1065.2,451.39,1067.19,451.39,1069.19z"/>
			<path class="st1" d="M558.22,912.36c2.2,0.23,4.78,0.48,7.35,0.8c0.36,0.05,0.8,0.37,1,0.69c1.36,2.26,2.01,4.49,1.3,7.3
				c-2.07,8.13-5.19,15.76-9.86,22.74c-2.24,3.35-4.8,6.45-7.85,9.12c-0.19,0.17-0.54,0.29-0.78,0.25c-0.58-0.1-0.45-0.56-0.34-0.95
				c0.97-3.6,1.36-7.3,1.81-10.98c0.33-2.68,0.35-5.47,0.01-8.15c-0.31-2.42-0.44-4.84-0.64-7.26c-0.1-1.28-0.28-2.56-0.57-3.8
				c-0.28-1.22-0.01-2.24,0.68-3.24c1.15-1.65,2.32-3.28,3.38-4.99c0.68-1.11,1.56-1.63,2.84-1.54
				C556.98,912.38,557.42,912.36,558.22,912.36z"/>
			<path class="st1" d="M590.28,1157.6c-0.14,0-0.29-0.01-0.43,0c-5.67,0.24-11.17-0.47-16.47-2.6c-1.45-0.58-3.02-0.87-4.53-1.31
				c-0.08-0.02-0.14-0.21-0.15-0.33c-0.01-0.13,0.01-0.29,0.08-0.39c0.07-0.11,0.2-0.21,0.33-0.27c6.78-3.12,13.56-6.25,20.35-9.34
				c3.22-1.46,2.71-1.77,6.31,0.33c1.74,1.01,3.47,2.02,5.25,2.95c2.95,1.55,6.03,2.59,9.45,2.61c1.55,0.01,3.12,0.42,4.66,0.78
				c1.07,0.25,1.67,1.08,1.79,2.17c0.18,1.55-0.34,2.86-1.42,3.33c-1.31,0.57-2.65,1.09-4.14,1.08c-1.87-0.02-3.74,0.02-5.61,0.06
				c-2.29,0.06-4.56,0.18-6.86,0.55c-2.82,0.46-5.74,0.32-8.61,0.44C590.28,1157.65,590.28,1157.63,590.28,1157.6z"/>
			<path class="st1" d="M409.99,891.16c0-1.29-0.12-2.59,0.03-3.86c0.21-1.78,1.06-3.23,2.72-4.13c1.39-0.75,2.75-1.57,4.12-2.35
				c1.63-0.92,2.46-0.47,2.35,1.4c-0.25,4.18,0.43,8.3,1.01,12.39c0.92,6.5,2.45,12.92,5.01,19.02c1.55,3.69,3.31,7.3,4.96,10.96
				c0.11,0.24,0.18,0.72,0.08,0.79c-0.33,0.21-0.8,0.45-1.14,0.36c-3.2-0.8-6.39-1.69-9.59-2.5c-0.92-0.23-1.5-0.72-1.9-1.56
				c-2.63-5.43-4.76-11.04-6.03-16.94C410.65,900.27,409.77,895.77,409.99,891.16z"/>
			<path class="st1" d="M500.9,925.06c-0.3,2.55-0.72,5.1-0.87,7.66c-0.16,2.67-0.44,2.7-2.8,2.38c-2.76-0.37-5.42,0.02-8.02,0.89
				c-0.82,0.27-1.6,0.64-2.41,0.94c-0.64,0.24-1.15-0.12-1.08-0.73c0.15-1.28,0.29-2.55,0.44-3.83c0.26-2.27,0.45-4.55,0.8-6.81
				c0.1-0.65,0.49-1.4,0.99-1.83c3.27-2.76,7.1-4.28,11.38-4.64c0.88-0.07,1.42,0.41,1.43,1.22c0.02,1.58,0.01,3.15,0.01,4.73
				C500.81,925.04,500.85,925.05,500.9,925.06z"/>
			<path class="st1" d="M478.14,1004.76c-0.24,0.41-0.33,0.76-0.53,0.86c-1.03,0.49-2.13,0.84-3.13,1.38
				c-2.77,1.49-5.51,3.05-8.27,4.56c-0.18,0.1-0.59,0.05-0.7-0.08c-0.15-0.18-0.17-0.52-0.15-0.78c0.01-0.28,0.11-0.56,0.2-0.83
				c2.9-8.33,5.42-16.78,7.66-25.31c0.04-0.14,0.27-0.24,0.4-0.36c0.06,0.13,0.16,0.25,0.18,0.38c0.31,2.54,0.63,5.08,0.91,7.62
				c0.41,3.71,1.69,7.19,2.78,10.72C477.71,1003.57,477.95,1004.22,478.14,1004.76z"/>
			<path class="st1" d="M337.77,1091.17c-3.47,0.16-6.91,0-10.28-0.92c-0.53-0.15-0.6-0.41-0.24-0.86c2.06-2.58,4.11-5.16,6.17-7.73
				c0.52-0.65,1.19-0.77,1.9-0.28c3.44,2.41,6.42,5.29,8.8,8.76c0.38,0.56,0.08,1.01-0.72,1.02
				C341.52,1091.19,339.65,1091.17,337.77,1091.17z"/>
			<path class="st1" d="M463.95,1071.93c-0.25,0.38-0.51,0.88-0.88,1.29c-0.38,0.42-0.82,0.81-1.31,1.1
				c-0.64,0.38-1.05-0.26-1.52-0.51c-1.67-0.89-3.47-1.34-5.32-1.64c-0.19-0.03-0.35-0.35-0.47-0.56c-0.05-0.1,0.03-0.27,0.06-0.41
				c0.94-4.12,0-7.92-1.98-11.55c-0.06-0.12-0.05-0.28-0.08-0.41c0.24-0.04,0.53-0.18,0.7-0.1c4.36,2.18,7.91,5.19,9.85,9.77
				C463.4,1069.83,463.61,1070.81,463.95,1071.93z"/>
			<path class="st1" d="M573.28,1012.66c-0.11,0.23-0.16,0.63-0.33,0.68c-1.36,0.43-2.76,0.74-4.11,1.19
				c-3.73,1.26-7.02,3.21-9.72,6.11c-0.88,0.94-1.72,1.91-2.62,2.83c-0.31,0.32-0.77,0.38-1.1-0.02c-0.54-0.66-1.05-1.35-1.55-2.05
				c-0.72-1-2.03-1.57-2.23-2.96c1.12-0.63,2.23-1.29,3.36-1.89c3.82-2.03,7.93-3.26,12.13-4.21c1.81-0.41,3.69-0.58,5.55-0.18
				C572.89,1012.21,573.07,1012.49,573.28,1012.66z"/>
			<path class="st1" d="M501.98,1045.45c-2.45,1.19-4.51,2.2-6.57,3.19c-0.08,0.04-0.26-0.01-0.34-0.08
				c-0.09-0.08-0.14-0.23-0.15-0.35c-0.01-0.14,0.02-0.29,0.07-0.42c1.71-3.92,3.43-7.83,5.15-11.74c0.25-0.57,0.94-0.75,1.4-0.35
				c2.38,2.05,4.78,4.09,7.12,6.19c0.66,0.59,0.72,0.78-0.26,1.15C506.13,1043.91,503.85,1044.75,501.98,1045.45z"/>
			<path class="st1" d="M398.29,907.22c0.24,0.04,0.38,0.07,0.52,0.08c0.7,0.08,1.36,0.92,1.16,1.53c-0.21,0.68-0.42,1.37-0.72,2.02
				c-2.9,6.25-1.24,6.03-8.09,3.22c-1.99-0.82-4.02-1.56-6.03-2.34c-0.11-0.04-0.26-0.21-0.25-0.29c0.04-0.25,0.08-0.62,0.24-0.7
				c2.58-1.32,5.34-2.13,8.15-2.75C394.95,907.61,396.67,907.45,398.29,907.22z"/>
			<path class="st1" d="M463.07,1019.29c-0.09-0.11-0.21-0.21-0.26-0.34c-0.05-0.13-0.05-0.28-0.04-0.42
				c0.07-1.09,0.69-1.85,1.57-2.4c1.45-0.91,2.9-1.83,4.39-2.66c3.24-1.8,6.51-3.56,9.79-5.29c0.28-0.15,0.98-0.07,1.12,0.14
				c0.36,0.55,0.54,1.24,0.76,1.88c0.03,0.08-0.12,0.25-0.22,0.33c-0.22,0.17-0.46,0.35-0.72,0.44c-5.67,2.07-10.75,5.27-16,8.15
				C463.34,1019.19,463.2,1019.24,463.07,1019.29z"/>
			<path class="st1" d="M540.88,1027.32c-0.26-0.06-0.41-0.05-0.51-0.12c-0.06-0.04-0.09-0.21-0.05-0.29
				c0.05-0.13,0.14-0.26,0.25-0.34c2.59-2.02,5.18-4.04,7.77-6.05c0.61-0.48,1.03-0.09,1.4,0.35c0.4,0.49,0.53,1.11,0,1.5
				C546.97,1024.4,543.91,1025.95,540.88,1027.32z"/>
		</g>
	</g>
</g>
</svg>
